<?xml version="1.0" encoding="UTF-8"?>
<!DOCTYPE svg PUBLIC "-//W3C//DTD SVG 1.1//EN" "http://www.w3.org/Graphics/SVG/1.1/DTD/svg11.dtd">
<svg xmlns="http://www.w3.org/2000/svg" version="1.1" width="224px" height="204px" style="shape-rendering:geometricPrecision; text-rendering:geometricPrecision; image-rendering:optimizeQuality; fill-rule:evenodd; clip-rule:evenodd" xmlns:xlink="http://www.w3.org/1999/xlink">
<g><path style="opacity:1" fill="#fefefe" d="M -0.5,-0.5 C 74.1667,-0.5 148.833,-0.5 223.5,-0.5C 223.5,67.5 223.5,135.5 223.5,203.5C 148.833,203.5 74.1667,203.5 -0.5,203.5C -0.5,135.5 -0.5,67.5 -0.5,-0.5 Z"/></g>
<g><path style="opacity:1" fill="#583713" d="M 80.5,46.5 C 85.1667,50.8333 89.8333,55.1667 94.5,59.5C 94.8333,60.1667 95.1667,60.8333 95.5,61.5C 93.9557,61.2969 92.6223,60.6302 91.5,59.5C 90.1667,60.8333 88.8333,60.8333 87.5,59.5C 86.4777,59.8555 85.811,60.5222 85.5,61.5C 81.5,57.8333 77.5,54.1667 73.5,50.5C 72.8333,50.5 72.5,50.1667 72.5,49.5C 69.5787,48.8061 66.5787,47.9728 63.5,47C 63.1667,46.6667 62.8333,46.3333 62.5,46C 64.0441,45.7104 65.3774,45.0437 66.5,44C 71.2608,44.081 75.9275,44.9143 80.5,46.5 Z"/></g>
<g><path style="opacity:1" fill="#f8f2e2" d="M 167.5,52.5 C 166.167,51.1667 164.833,49.8333 163.5,48.5C 159.228,42.7365 153.561,40.5698 146.5,42C 144.907,42.9487 143.574,44.1154 142.5,45.5C 139.192,48.2603 135.526,50.2603 131.5,51.5C 130.243,54.096 129.076,56.7627 128,59.5C 127.25,60.1258 126.416,60.6258 125.5,61C 115.839,61.4998 106.172,61.6665 96.5,61.5C 96.1667,61.5 95.8333,61.5 95.5,61.5C 95.1667,60.8333 94.8333,60.1667 94.5,59.5C 105.187,59.832 115.854,59.4987 126.5,58.5C 127.194,54.8099 128.028,51.1432 129,47.5C 129.333,48.1667 129.667,48.8333 130,49.5C 135.564,47.6303 140.398,44.4636 144.5,40C 151.156,37.3298 157.156,38.3298 162.5,43C 164.167,45.3333 166.167,47.3333 168.5,49C 167.663,50.0113 167.33,51.1779 167.5,52.5 Z"/></g>
<g><path style="opacity:1" fill="#543b19" d="M 163.5,48.5 C 159.52,47.2713 155.853,45.6046 152.5,43.5C 149.907,43.5816 147.907,44.7483 146.5,47C 148.32,47.2004 149.653,48.0337 150.5,49.5C 148.5,51.1667 146.5,52.8333 144.5,54.5C 144.912,52.0274 143.912,50.6941 141.5,50.5C 141.389,49.8826 141.056,49.3826 140.5,49C 141.823,48.1841 142.489,47.0174 142.5,45.5C 143.574,44.1154 144.907,42.9487 146.5,42C 153.561,40.5698 159.228,42.7365 163.5,48.5 Z"/></g>
<g><path style="opacity:1" fill="#715d35" d="M 142.5,45.5 C 142.489,47.0174 141.823,48.1841 140.5,49C 141.056,49.3826 141.389,49.8826 141.5,50.5C 139.661,51.5819 137.661,52.4153 135.5,53C 134.299,53.9025 133.465,55.0692 133,56.5C 132.217,54.5665 132.717,53.0665 134.5,52C 133.552,51.5172 132.552,51.3505 131.5,51.5C 135.526,50.2603 139.192,48.2603 142.5,45.5 Z"/></g>
<g><path style="opacity:1" fill="#f4efe0" d="M 94.5,59.5 C 89.8333,55.1667 85.1667,50.8333 80.5,46.5C 79.2842,44.5491 77.6175,43.0491 75.5,42C 69.9504,41.0025 64.617,41.5025 59.5,43.5C 59.5774,42.2502 60.244,41.4169 61.5,41C 69.6542,39.5476 77.3209,40.7143 84.5,44.5C 86.8385,48.5932 90.0052,51.9265 94,54.5C 94.4935,56.1341 94.6602,57.8008 94.5,59.5 Z"/></g>
<g><path style="opacity:1" fill="#6b461b" d="M 163.5,48.5 C 165.336,57.5995 168.669,65.4328 173.5,72C 173.323,74.1324 172.323,75.1324 170.5,75C 169.352,73.3513 168.019,71.8513 166.5,70.5C 165.96,67.2145 164.794,64.2145 163,61.5C 162.23,60.4019 161.397,60.4019 160.5,61.5C 158.36,57.8965 156.193,54.2299 154,50.5C 152.989,49.6634 151.822,49.33 150.5,49.5C 149.653,48.0337 148.32,47.2004 146.5,47C 147.907,44.7483 149.907,43.5816 152.5,43.5C 155.853,45.6046 159.52,47.2713 163.5,48.5 Z"/></g>
<g><path style="opacity:1" fill="#734f25" d="M 57.5,45.5 C 57.5,46.5 57.5,47.5 57.5,48.5C 58.675,48.281 59.675,48.6143 60.5,49.5C 59.3595,50.4255 59.3595,51.2588 60.5,52C 56.6684,59.9178 52.335,67.5845 47.5,75C 47.927,77.1281 47.427,79.2947 46,81.5C 45.1257,86.9949 44.2923,92.4949 43.5,98C 43.528,99.0698 43.8614,99.9032 44.5,100.5C 44.6633,102.857 44.4966,105.19 44,107.5C 42.9887,108.337 41.8221,108.67 40.5,108.5C 38.1843,107.84 35.851,107.173 33.5,106.5C 31.3076,106.757 29.6409,107.757 28.5,109.5C 27.2223,109.782 26.2223,110.449 25.5,111.5C 24.6618,111.842 24.3284,112.508 24.5,113.5C 22.1417,113.253 20.1417,113.919 18.5,115.5C 17.7659,114.292 17.4326,112.959 17.5,111.5C 19.1053,106.896 22.1053,103.562 26.5,101.5C 26.4346,101.938 26.6012,102.272 27,102.5C 31.4713,101.04 35.4713,98.707 39,95.5C 40.2074,90.8778 41.2074,86.2111 42,81.5C 43.5292,80.2713 44.6959,78.7713 45.5,77C 45.4303,73.0838 45.0969,69.2505 44.5,65.5C 46.4728,59.5508 49.4728,54.2175 53.5,49.5C 54.5,47.8333 55.8333,46.5 57.5,45.5 Z"/></g>
<g><path style="opacity:1" fill="#fdf8d9" d="M 72.5,49.5 C 72.5,50.1667 72.8333,50.5 73.5,50.5C 74.1712,51.8471 74.1712,53.0138 73.5,54C 78.8538,55.1529 79.5205,57.3196 75.5,60.5C 73.0642,59.1091 72.3975,59.6091 73.5,62C 75.1341,62.4935 76.8008,62.6602 78.5,62.5C 77.5259,67.0268 79.3592,69.3602 84,69.5C 85.2613,69.2409 86.2613,68.5742 87,67.5C 88.0305,70.8711 90.3639,72.8711 94,73.5C 95.1685,72.9915 96.0019,72.1581 96.5,71C 107.077,70.1809 117.577,70.3476 128,71.5C 130.57,70.991 132.903,69.991 135,68.5C 135.333,68.8333 135.667,69.1667 136,69.5C 136.049,66.8363 136.882,64.1696 138.5,61.5C 140.5,59.1667 142.5,56.8333 144.5,54.5C 146.5,52.8333 148.5,51.1667 150.5,49.5C 151.822,49.33 152.989,49.6634 154,50.5C 156.193,54.2299 158.36,57.8965 160.5,61.5C 163.049,67.5992 165.882,73.5992 169,79.5C 170.658,86.7647 171.824,94.098 172.5,101.5C 171.4,99.7226 170.566,97.7226 170,95.5C 169.667,96.8333 169.333,98.1667 169,99.5C 168.178,97.2115 167.511,94.8782 167,92.5C 163.237,89.5392 160.904,90.5392 160,95.5C 159.691,94.2341 159.191,93.0674 158.5,92C 154.514,91.5012 150.514,91.3345 146.5,91.5C 147.29,98.8578 147.79,106.191 148,113.5C 147.692,112.692 147.192,112.025 146.5,111.5C 145.779,113.686 145.113,115.853 144.5,118C 137.054,122.041 133.054,119.874 132.5,111.5C 133.482,108.038 133.815,104.371 133.5,100.5C 133.769,98.5714 133.269,96.9047 132,95.5C 131.293,99.3351 130.126,103.002 128.5,106.5C 127.779,104.314 127.113,102.147 126.5,100C 116.506,99.5002 106.506,99.3335 96.5,99.5C 95.3653,94.2063 93.8653,94.2063 92,99.5C 91.6667,104.167 91.3333,108.833 91,113.5C 90.2515,115.332 89.2515,116.999 88,118.5C 87.6174,117.944 87.1174,117.611 86.5,117.5C 87.3085,110.657 85.9752,104.324 82.5,98.5C 80.8573,104.401 79.8573,110.401 79.5,116.5C 78.7904,111.298 78.1237,105.965 77.5,100.5C 73.1532,99.7782 68.8198,99.1115 64.5,98.5C 63.1038,96.0284 62.2704,93.3617 62,90.5C 58.2273,93.9572 56.0606,98.2905 55.5,103.5C 54.5,103.5 53.5,103.5 52.5,103.5C 52.915,106.368 51.915,108.535 49.5,110C 51.6175,110.26 53.2842,111.26 54.5,113C 52.5101,114.751 50.1768,115.751 47.5,116C 49.1667,116.333 50.8333,116.667 52.5,117C 50.5968,118.447 48.9301,120.114 47.5,122C 49.0349,122.496 50.5349,122.33 52,121.5C 54.8024,122.619 56.3024,124.619 56.5,127.5C 55.8825,129.229 54.8825,130.729 53.5,132C 50.4403,132.848 47.4403,133.848 44.5,135C 43.6198,136.356 43.2865,137.856 43.5,139.5C 41.2407,138.656 40.2407,136.989 40.5,134.5C 40.5,134.167 40.5,133.833 40.5,133.5C 44.6373,131.598 48.6373,129.431 52.5,127C 49.1322,126.457 45.7989,126.624 42.5,127.5C 43.6298,125.685 44.2964,123.685 44.5,121.5C 45.6602,120.735 46.6602,119.735 47.5,118.5C 46.675,117.614 45.675,117.281 44.5,117.5C 44.1667,117.5 43.8333,117.5 43.5,117.5C 39.5,116.833 35.5,116.167 31.5,115.5C 36.772,114.6 42.1053,114.267 47.5,114.5C 47.5,113.5 47.5,112.5 47.5,111.5C 45.8008,111.66 44.1341,111.494 42.5,111C 41.244,110.583 40.5774,109.75 40.5,108.5C 41.8221,108.67 42.9887,108.337 44,107.5C 44.4966,105.19 44.6633,102.857 44.5,100.5C 47.8818,81.824 55.2152,64.9906 66.5,50C 68.4727,49.5045 70.4727,49.3379 72.5,49.5 Z"/></g>
<g><path style="opacity:1" fill="#614720" d="M 141.5,50.5 C 143.912,50.6941 144.912,52.0274 144.5,54.5C 142.5,56.8333 140.5,59.1667 138.5,61.5C 135.665,64.1653 132.665,66.6653 129.5,69C 119.172,69.4998 108.839,69.6665 98.5,69.5C 108.325,68.6698 118.325,68.1698 128.5,68C 127.366,66.984 127.699,66.3173 129.5,66C 128.376,65.7508 127.376,65.2508 126.5,64.5C 127.326,63.549 127.492,62.549 127,61.5C 116.735,62.8288 106.569,62.8288 96.5,61.5C 106.172,61.6665 115.839,61.4998 125.5,61C 126.416,60.6258 127.25,60.1258 128,59.5C 129.076,56.7627 130.243,54.096 131.5,51.5C 132.552,51.3505 133.552,51.5172 134.5,52C 132.717,53.0665 132.217,54.5665 133,56.5C 133.465,55.0692 134.299,53.9025 135.5,53C 137.661,52.4153 139.661,51.5819 141.5,50.5 Z"/></g>
<g><path style="opacity:1" fill="#faf7ea" d="M 53.5,49.5 C 49.4728,54.2175 46.4728,59.5508 44.5,65.5C 40.2508,74.0029 37.7508,83.0029 37,92.5C 36.7216,93.4158 36.2216,94.0825 35.5,94.5C 34.928,90.9213 35.0947,87.2546 36,83.5C 37.2055,79.5504 38.2055,75.5504 39,71.5C 41.0178,69.6262 42.1844,67.2929 42.5,64.5C 41.1551,62.6772 40.6551,60.6772 41,58.5C 42.016,57.3659 42.6827,57.6992 43,59.5C 43.3589,56.4557 44.0255,56.1224 45,58.5C 46.8333,55.5 48.6667,52.5 50.5,49.5C 51.4246,48.4376 52.4246,48.4376 53.5,49.5 Z"/></g>
<g><path style="opacity:1" fill="#4c3112" d="M 95.5,61.5 C 95.8333,61.5 96.1667,61.5 96.5,61.5C 106.569,62.8288 116.735,62.8288 127,61.5C 127.492,62.549 127.326,63.549 126.5,64.5C 127.376,65.2508 128.376,65.7508 129.5,66C 127.699,66.3173 127.366,66.984 128.5,68C 118.325,68.1698 108.325,68.6698 98.5,69.5C 92.7053,69.4005 88.3719,66.7338 85.5,61.5C 85.811,60.5222 86.4777,59.8555 87.5,59.5C 88.8333,60.8333 90.1667,60.8333 91.5,59.5C 92.6223,60.6302 93.9557,61.2969 95.5,61.5 Z"/></g>
<g><path style="opacity:1" fill="#f7e8c4" d="M 73.5,50.5 C 77.5,54.1667 81.5,57.8333 85.5,61.5C 88.3719,66.7338 92.7053,69.4005 98.5,69.5C 108.839,69.6665 119.172,69.4998 129.5,69C 132.665,66.6653 135.665,64.1653 138.5,61.5C 136.882,64.1696 136.049,66.8363 136,69.5C 135.667,69.1667 135.333,68.8333 135,68.5C 132.903,69.991 130.57,70.991 128,71.5C 117.577,70.3476 107.077,70.1809 96.5,71C 96.0019,72.1581 95.1685,72.9915 94,73.5C 90.3639,72.8711 88.0305,70.8711 87,67.5C 86.2613,68.5742 85.2613,69.2409 84,69.5C 79.3592,69.3602 77.5259,67.0268 78.5,62.5C 76.8008,62.6602 75.1341,62.4935 73.5,62C 72.3975,59.6091 73.0642,59.1091 75.5,60.5C 79.5205,57.3196 78.8538,55.1529 73.5,54C 74.1712,53.0138 74.1712,51.8471 73.5,50.5 Z"/></g>
<g><path style="opacity:1" fill="#faf3e5" d="M 167.5,52.5 C 169.032,53.6774 170.532,55.0107 172,56.5C 176.832,67.328 180.665,78.4947 183.5,90C 182.446,91.3876 182.28,92.8876 183,94.5C 186.675,96.7412 190.175,99.0745 193.5,101.5C 192.833,101.5 192.167,101.5 191.5,101.5C 183.334,99.3291 179.334,93.9957 179.5,85.5C 177.192,79.752 175.692,73.752 175,67.5C 172.399,62.5189 169.899,57.5189 167.5,52.5 Z"/></g>
<g><path style="opacity:1" fill="#664a25" d="M 80.5,46.5 C 75.9275,44.9143 71.2608,44.081 66.5,44C 65.3774,45.0437 64.0441,45.7104 62.5,46C 62.8333,46.3333 63.1667,46.6667 63.5,47C 66.5787,47.9728 69.5787,48.8061 72.5,49.5C 70.4727,49.3379 68.4727,49.5045 66.5,50C 55.2152,64.9906 47.8818,81.824 44.5,100.5C 43.8614,99.9032 43.528,99.0698 43.5,98C 44.2923,92.4949 45.1257,86.9949 46,81.5C 47.427,79.2947 47.927,77.1281 47.5,75C 52.335,67.5845 56.6684,59.9178 60.5,52C 59.3595,51.2588 59.3595,50.4255 60.5,49.5C 59.675,48.6143 58.675,48.281 57.5,48.5C 57.5,47.5 57.5,46.5 57.5,45.5C 58.5,45.1667 59.1667,44.5 59.5,43.5C 64.617,41.5025 69.9504,41.0025 75.5,42C 77.6175,43.0491 79.2842,44.5491 80.5,46.5 Z"/></g>
<g><path style="opacity:1" fill="#6d4f2c" d="M 163.5,48.5 C 164.833,49.8333 166.167,51.1667 167.5,52.5C 169.899,57.5189 172.399,62.5189 175,67.5C 175.692,73.752 177.192,79.752 179.5,85.5C 179.666,90.5111 179.499,95.5111 179,100.5C 178.691,101.766 178.191,102.933 177.5,104C 179.341,106.257 180.674,108.757 181.5,111.5C 180.209,111.263 179.209,111.596 178.5,112.5C 176.856,112.714 175.356,112.38 174,111.5C 173.821,107.975 173.321,104.641 172.5,101.5C 171.824,94.098 170.658,86.7647 169,79.5C 165.882,73.5992 163.049,67.5992 160.5,61.5C 161.397,60.4019 162.23,60.4019 163,61.5C 164.794,64.2145 165.96,67.2145 166.5,70.5C 168.019,71.8513 169.352,73.3513 170.5,75C 172.323,75.1324 173.323,74.1324 173.5,72C 168.669,65.4328 165.336,57.5995 163.5,48.5 Z"/></g>
<g><path style="opacity:1" fill="#81623c" d="M 44.5,65.5 C 45.0969,69.2505 45.4303,73.0838 45.5,77C 44.6959,78.7713 43.5292,80.2713 42,81.5C 41.2074,86.2111 40.2074,90.8778 39,95.5C 35.4713,98.707 31.4713,101.04 27,102.5C 26.6012,102.272 26.4346,101.938 26.5,101.5C 29.319,98.925 32.319,96.5917 35.5,94.5C 36.2216,94.0825 36.7216,93.4158 37,92.5C 37.7508,83.0029 40.2508,74.0029 44.5,65.5 Z"/></g>
<g><path style="opacity:1" fill="#fdfce3" d="M 172.5,101.5 C 173.321,104.641 173.821,107.975 174,111.5C 175.356,112.38 176.856,112.714 178.5,112.5C 183.569,112.25 188.402,111.916 193,111.5C 196.044,112.803 197.211,115.136 196.5,118.5C 193.713,119.477 190.713,119.81 187.5,119.5C 182.103,119.785 176.77,119.451 171.5,118.5C 170.304,118.846 170.304,119.346 171.5,120C 167.551,120.807 167.551,121.307 171.5,121.5C 171.5,122.833 171.5,124.167 171.5,125.5C 168.99,125.054 166.99,125.72 165.5,127.5C 163.516,127.516 162.516,126.516 162.5,124.5C 164.271,121.744 165.271,118.744 165.5,115.5C 163.799,115.034 162.299,115.034 161,115.5C 160.125,112.785 158.292,111.452 155.5,111.5C 155.577,114.012 154.577,116.012 152.5,117.5C 151.914,117.291 151.414,116.957 151,116.5C 149.947,121.207 146.947,123.54 142,123.5C 136.179,123.558 132.345,120.558 130.5,114.5C 130.453,112.962 131.12,111.962 132.5,111.5C 133.054,119.874 137.054,122.041 144.5,118C 145.113,115.853 145.779,113.686 146.5,111.5C 147.192,112.025 147.692,112.692 148,113.5C 147.79,106.191 147.29,98.8578 146.5,91.5C 150.514,91.3345 154.514,91.5012 158.5,92C 159.191,93.0674 159.691,94.2341 160,95.5C 160.904,90.5392 163.237,89.5392 167,92.5C 167.511,94.8782 168.178,97.2115 169,99.5C 169.333,98.1667 169.667,96.8333 170,95.5C 170.566,97.7226 171.4,99.7226 172.5,101.5 Z"/></g>
<g><path style="opacity:1" fill="#fefee4" d="M 79.5,116.5 C 81.5832,118.604 83.9165,118.938 86.5,117.5C 87.1174,117.611 87.6174,117.944 88,118.5C 89.2515,116.999 90.2515,115.332 91,113.5C 91.3333,108.833 91.6667,104.167 92,99.5C 93.8653,94.2063 95.3653,94.2063 96.5,99.5C 106.506,99.3335 116.506,99.5002 126.5,100C 127.113,102.147 127.779,104.314 128.5,106.5C 130.126,103.002 131.293,99.3351 132,95.5C 133.269,96.9047 133.769,98.5714 133.5,100.5C 132.795,104.262 131.128,107.595 128.5,110.5C 127.792,113.366 127.125,116.2 126.5,119C 116.5,119.667 106.5,119.667 96.5,119C 95.8921,118.13 95.0588,117.63 94,117.5C 91.2747,118.63 88.7747,120.13 86.5,122C 84.1902,122.497 81.8568,122.663 79.5,122.5C 79.3274,119.821 78.3274,117.487 76.5,115.5C 75.1476,116.518 74.1476,117.851 73.5,119.5C 72.224,114.318 71.5573,114.318 71.5,119.5C 65.6941,119.95 60.1941,118.95 55,116.5C 53.2988,118.024 53.7988,119.024 56.5,119.5C 58.9218,121.302 59.7551,123.635 59,126.5C 58.3292,127.252 57.4959,127.586 56.5,127.5C 56.3024,124.619 54.8024,122.619 52,121.5C 50.5349,122.33 49.0349,122.496 47.5,122C 48.9301,120.114 50.5968,118.447 52.5,117C 50.8333,116.667 49.1667,116.333 47.5,116C 50.1768,115.751 52.5101,114.751 54.5,113C 53.2842,111.26 51.6175,110.26 49.5,110C 51.915,108.535 52.915,106.368 52.5,103.5C 53.5,103.5 54.5,103.5 55.5,103.5C 56.0606,98.2905 58.2273,93.9572 62,90.5C 62.2704,93.3617 63.1038,96.0284 64.5,98.5C 68.8198,99.1115 73.1532,99.7782 77.5,100.5C 78.1237,105.965 78.7904,111.298 79.5,116.5 Z"/></g>
<g><path style="opacity:1" fill="#896841" d="M 179.5,85.5 C 179.334,93.9957 183.334,99.3291 191.5,101.5C 189.738,101.357 188.071,101.691 186.5,102.5C 185.382,104.867 184.716,107.034 184.5,109C 185.448,109.483 186.448,109.649 187.5,109.5C 185.698,110.458 183.698,111.125 181.5,111.5C 180.674,108.757 179.341,106.257 177.5,104C 178.191,102.933 178.691,101.766 179,100.5C 179.499,95.5111 179.666,90.5111 179.5,85.5 Z"/></g>
<g><path style="opacity:1" fill="#6f4d27" d="M 191.5,101.5 C 192.167,101.5 192.833,101.5 193.5,101.5C 194.514,102.674 195.847,103.34 197.5,103.5C 200.991,104.574 202.991,106.907 203.5,110.5C 203.662,112.527 203.495,114.527 203,116.5C 202.692,115.692 202.192,115.025 201.5,114.5C 200.274,115.363 198.94,115.363 197.5,114.5C 195.598,110.317 192.265,108.651 187.5,109.5C 186.448,109.649 185.448,109.483 184.5,109C 184.716,107.034 185.382,104.867 186.5,102.5C 188.071,101.691 189.738,101.357 191.5,101.5 Z"/></g>
<g><path style="opacity:1" fill="#fdfeeb" d="M 133.5,100.5 C 133.815,104.371 133.482,108.038 132.5,111.5C 131.12,111.962 130.453,112.962 130.5,114.5C 132.345,120.558 136.179,123.558 142,123.5C 146.947,123.54 149.947,121.207 151,116.5C 151.414,116.957 151.914,117.291 152.5,117.5C 154.577,116.012 155.577,114.012 155.5,111.5C 158.292,111.452 160.125,112.785 161,115.5C 162.299,115.034 163.799,115.034 165.5,115.5C 165.271,118.744 164.271,121.744 162.5,124.5C 162.516,126.516 163.516,127.516 165.5,127.5C 165.973,128.906 166.973,129.573 168.5,129.5C 171.974,130.729 174.307,133.062 175.5,136.5C 174.25,138.932 172.75,141.266 171,143.5C 167.191,146.637 163.358,149.803 159.5,153C 154.007,154.009 148.674,155.175 143.5,156.5C 142.833,156.5 142.167,156.5 141.5,156.5C 140.167,156.5 138.833,156.5 137.5,156.5C 123.496,156.667 109.496,156.5 95.5,156C 80.2776,152.527 64.9443,149.694 49.5,147.5C 47.5116,144.872 45.5116,142.205 43.5,139.5C 43.2865,137.856 43.6198,136.356 44.5,135C 47.4403,133.848 50.4403,132.848 53.5,132C 54.8825,130.729 55.8825,129.229 56.5,127.5C 57.4959,127.586 58.3292,127.252 59,126.5C 59.7551,123.635 58.9218,121.302 56.5,119.5C 53.7988,119.024 53.2988,118.024 55,116.5C 60.1941,118.95 65.6941,119.95 71.5,119.5C 71.5573,114.318 72.224,114.318 73.5,119.5C 74.1476,117.851 75.1476,116.518 76.5,115.5C 78.3274,117.487 79.3274,119.821 79.5,122.5C 81.8568,122.663 84.1902,122.497 86.5,122C 88.7747,120.13 91.2747,118.63 94,117.5C 95.0588,117.63 95.8921,118.13 96.5,119C 106.5,119.667 116.5,119.667 126.5,119C 127.125,116.2 127.792,113.366 128.5,110.5C 131.128,107.595 132.795,104.262 133.5,100.5 Z"/></g>
<g><path style="opacity:1" fill="#e8d6bc" d="M 187.5,109.5 C 192.265,108.651 195.598,110.317 197.5,114.5C 197.768,116.099 197.434,117.432 196.5,118.5C 197.211,115.136 196.044,112.803 193,111.5C 188.402,111.916 183.569,112.25 178.5,112.5C 179.209,111.596 180.209,111.263 181.5,111.5C 183.698,111.125 185.698,110.458 187.5,109.5 Z"/></g>
<g><path style="opacity:1" fill="#fcfaeb" d="M 40.5,108.5 C 40.5774,109.75 41.244,110.583 42.5,111C 44.1341,111.494 45.8008,111.66 47.5,111.5C 47.5,112.5 47.5,113.5 47.5,114.5C 42.1053,114.267 36.772,114.6 31.5,115.5C 27.8433,114.853 26.8433,112.853 28.5,109.5C 29.6409,107.757 31.3076,106.757 33.5,106.5C 35.851,107.173 38.1843,107.84 40.5,108.5 Z"/></g>
<g><path style="opacity:1" fill="#917f5a" d="M 86.5,117.5 C 83.9165,118.938 81.5832,118.604 79.5,116.5C 79.8573,110.401 80.8573,104.401 82.5,98.5C 85.9752,104.324 87.3085,110.657 86.5,117.5 Z"/></g>
<g><path style="opacity:1" fill="#ebdabc" d="M 28.5,109.5 C 26.8433,112.853 27.8433,114.853 31.5,115.5C 35.5,116.167 39.5,116.833 43.5,117.5C 38.0735,117.782 32.7401,117.449 27.5,116.5C 26.032,115.221 25.3653,113.554 25.5,111.5C 26.2223,110.449 27.2223,109.782 28.5,109.5 Z"/></g>
<g><path style="opacity:1" fill="#968458" d="M 138.5,99.5 C 139.496,99.4142 140.329,99.7476 141,100.5C 143.247,105.637 143.914,110.97 143,116.5C 141,117.833 139,117.833 137,116.5C 136.052,110.65 136.552,104.983 138.5,99.5 Z"/></g>
<g><path style="opacity:1" fill="#7f5f35" d="M 203.5,110.5 C 204.327,115.346 204.994,120.346 205.5,125.5C 204.624,125.631 203.957,125.298 203.5,124.5C 202.498,122.49 201.498,120.49 200.5,118.5C 197.724,120.13 194.724,120.797 191.5,120.5C 191.5,121.5 191.5,122.5 191.5,123.5C 192.5,123.5 193.5,123.5 194.5,123.5C 191.673,124.368 188.673,124.368 185.5,123.5C 183.5,123.5 181.5,123.5 179.5,123.5C 178.1,122.9 177.1,121.9 176.5,120.5C 180.371,120.815 184.038,120.482 187.5,119.5C 190.713,119.81 193.713,119.477 196.5,118.5C 197.434,117.432 197.768,116.099 197.5,114.5C 198.94,115.363 200.274,115.363 201.5,114.5C 202.192,115.025 202.692,115.692 203,116.5C 203.495,114.527 203.662,112.527 203.5,110.5 Z"/></g>
<g><path style="opacity:1" fill="#77512e" d="M 27.5,116.5 C 32.7401,117.449 38.0735,117.782 43.5,117.5C 43.8333,117.5 44.1667,117.5 44.5,117.5C 44.6107,118.117 44.944,118.617 45.5,119C 41.3908,119.944 37.3908,120.778 33.5,121.5C 32.8333,121.5 32.1667,121.5 31.5,121.5C 27.2214,122.546 24.5548,121.046 23.5,117C 24.7932,116.51 26.1266,116.343 27.5,116.5 Z"/></g>
<g><path style="opacity:1" fill="#98774e" d="M 25.5,111.5 C 25.3653,113.554 26.032,115.221 27.5,116.5C 26.1266,116.343 24.7932,116.51 23.5,117C 24.5548,121.046 27.2214,122.546 31.5,121.5C 28.6417,122.166 25.6417,122.833 22.5,123.5C 21.5827,126.758 21.2493,130.091 21.5,133.5C 19.5599,126.361 20.5599,119.694 24.5,113.5C 24.3284,112.508 24.6618,111.842 25.5,111.5 Z"/></g>
<g><path style="opacity:1" fill="#d6baa1" d="M 44.5,117.5 C 45.675,117.281 46.675,117.614 47.5,118.5C 46.6602,119.735 45.6602,120.735 44.5,121.5C 41.5,121.5 38.5,121.5 35.5,121.5C 34.8333,121.5 34.1667,121.5 33.5,121.5C 37.3908,120.778 41.3908,119.944 45.5,119C 44.944,118.617 44.6107,118.117 44.5,117.5 Z"/></g>
<g><path style="opacity:1" fill="#a38c6b" d="M 176.5,120.5 C 177.1,121.9 178.1,122.9 179.5,123.5C 177.335,123.884 175.668,123.217 174.5,121.5C 174.957,120.702 175.624,120.369 176.5,120.5 Z"/></g>
<g><path style="opacity:1" fill="#7e613e" d="M 17.5,111.5 C 17.4326,112.959 17.7659,114.292 18.5,115.5C 16.6266,119.555 14.9599,123.722 13.5,128C 14.8589,130.958 15.5256,134.124 15.5,137.5C 13.6059,134.038 11.9393,130.371 10.5,126.5C 11.4181,123.594 12.7515,120.928 14.5,118.5C 14.9348,115.843 15.9348,113.509 17.5,111.5 Z"/></g>
<g><path style="opacity:1" fill="#fdfdf0" d="M 35.5,121.5 C 38.5,121.5 41.5,121.5 44.5,121.5C 44.2964,123.685 43.6298,125.685 42.5,127.5C 36.1982,129.287 29.8649,130.954 23.5,132.5C 23.1924,130.076 23.5258,127.743 24.5,125.5C 27.7481,124.355 31.0815,123.521 34.5,123C 35.056,122.617 35.3893,122.117 35.5,121.5 Z"/></g>
<g><path style="opacity:1" fill="#9a7d58" d="M 185.5,123.5 C 188.673,124.368 191.673,124.368 194.5,123.5C 195.5,123.5 196.5,123.5 197.5,123.5C 197.833,125.5 198.167,127.5 198.5,129.5C 197.636,128.312 196.636,127.145 195.5,126C 191.867,125.851 188.534,125.018 185.5,123.5 Z"/></g>
<g><path style="opacity:1" fill="#fdfcf4" d="M 181.5,132.5 C 180.391,132.443 179.391,132.11 178.5,131.5C 176.615,129.947 175.615,127.947 175.5,125.5C 182.9,125.172 189.9,126.506 196.5,129.5C 199.182,135.844 197.516,137.011 191.5,133C 188.183,132.502 184.85,132.335 181.5,132.5 Z"/></g>
<g><path style="opacity:1" fill="#fbf8ec" d="M 197.5,103.5 C 204.858,102.519 207.525,105.519 205.5,112.5C 207.15,117.303 208.15,122.303 208.5,127.5C 209.5,127.5 210.5,127.5 211.5,127.5C 211.16,130.144 211.827,132.477 213.5,134.5C 212.067,137.333 211.4,140.333 211.5,143.5C 208.227,145.997 204.393,147.664 200,148.5C 195.252,147.365 190.419,147.198 185.5,148C 183.132,151.518 179.798,153.351 175.5,153.5C 178.642,150.531 181.975,147.698 185.5,145C 190.963,145.7 196.296,145.534 201.5,144.5C 203.993,144.671 205.826,143.671 207,141.5C 207.667,136.833 207.667,132.167 207,127.5C 206.722,126.584 206.222,125.918 205.5,125.5C 204.994,120.346 204.327,115.346 203.5,110.5C 202.991,106.907 200.991,104.574 197.5,103.5 Z"/></g>
<g><path style="opacity:1" fill="#faf2d9" d="M 31.5,121.5 C 32.1667,121.5 32.8333,121.5 33.5,121.5C 34.1667,121.5 34.8333,121.5 35.5,121.5C 35.3893,122.117 35.056,122.617 34.5,123C 31.0815,123.521 27.7481,124.355 24.5,125.5C 23.5258,127.743 23.1924,130.076 23.5,132.5C 29.8649,130.954 36.1982,129.287 42.5,127.5C 39.5914,129.356 36.5914,131.023 33.5,132.5C 30.4373,132.863 27.4373,133.53 24.5,134.5C 23.2739,134.48 22.2739,134.147 21.5,133.5C 21.2493,130.091 21.5827,126.758 22.5,123.5C 25.6417,122.833 28.6417,122.166 31.5,121.5 Z"/></g>
<g><path style="opacity:1" fill="#7a5a33" d="M 40.5,133.5 C 38.283,132.631 35.9496,132.298 33.5,132.5C 36.5914,131.023 39.5914,129.356 42.5,127.5C 45.7989,126.624 49.1322,126.457 52.5,127C 48.6373,129.431 44.6373,131.598 40.5,133.5 Z"/></g>
<g><path style="opacity:1" fill="#f9f3e8" d="M 14.5,118.5 C 12.7515,120.928 11.4181,123.594 10.5,126.5C 11.9393,130.371 13.6059,134.038 15.5,137.5C 15.427,139.027 16.0937,140.027 17.5,140.5C 17.5,140.833 17.5,141.167 17.5,141.5C 14.234,141.567 12.734,139.901 13,136.5C 9.77633,135.214 8.60966,133.047 9.5,130C 7.05219,126.858 7.21886,123.692 10,120.5C 11.1096,118.963 12.6096,118.297 14.5,118.5 Z"/></g>
<g><path style="opacity:1" fill="#7f5527" d="M 24.5,113.5 C 20.5599,119.694 19.5599,126.361 21.5,133.5C 22.2739,134.147 23.2739,134.48 24.5,134.5C 27.4373,133.53 30.4373,132.863 33.5,132.5C 35.9496,132.298 38.283,132.631 40.5,133.5C 40.5,133.833 40.5,134.167 40.5,134.5C 36.4023,136.048 32.4023,137.881 28.5,140C 24.8484,140.499 21.1817,140.665 17.5,140.5C 16.0937,140.027 15.427,139.027 15.5,137.5C 15.5256,134.124 14.8589,130.958 13.5,128C 14.9599,123.722 16.6266,119.555 18.5,115.5C 20.1417,113.919 22.1417,113.253 24.5,113.5 Z"/></g>
<g><path style="opacity:1" fill="#6c4e2a" d="M 178.5,131.5 C 179.391,132.11 180.391,132.443 181.5,132.5C 181.5,133.167 181.833,133.5 182.5,133.5C 183.091,134.151 183.757,134.818 184.5,135.5C 183.051,136.172 181.718,136.839 180.5,137.5C 178.708,137.634 177.042,137.301 175.5,136.5C 174.307,133.062 171.974,130.729 168.5,129.5C 167.15,128.176 167.317,127.176 169,126.5C 172.442,127.802 175.609,129.469 178.5,131.5 Z"/></g>
<g><path style="opacity:1" fill="#f6ebd3" d="M 187.5,119.5 C 184.038,120.482 180.371,120.815 176.5,120.5C 175.624,120.369 174.957,120.702 174.5,121.5C 175.668,123.217 177.335,123.884 179.5,123.5C 181.5,123.5 183.5,123.5 185.5,123.5C 188.534,125.018 191.867,125.851 195.5,126C 196.636,127.145 197.636,128.312 198.5,129.5C 199.338,129.842 199.672,130.508 199.5,131.5C 199.5,133.5 199.5,135.5 199.5,137.5C 198.5,137.5 197.5,137.5 196.5,137.5C 191.952,135.987 187.285,134.654 182.5,133.5C 181.833,133.5 181.5,133.167 181.5,132.5C 184.85,132.335 188.183,132.502 191.5,133C 197.516,137.011 199.182,135.844 196.5,129.5C 189.9,126.506 182.9,125.172 175.5,125.5C 175.615,127.947 176.615,129.947 178.5,131.5C 175.609,129.469 172.442,127.802 169,126.5C 167.317,127.176 167.15,128.176 168.5,129.5C 166.973,129.573 165.973,128.906 165.5,127.5C 166.99,125.72 168.99,125.054 171.5,125.5C 171.5,124.167 171.5,122.833 171.5,121.5C 167.551,121.307 167.551,120.807 171.5,120C 170.304,119.346 170.304,118.846 171.5,118.5C 176.77,119.451 182.103,119.785 187.5,119.5 Z"/></g>
<g><path style="opacity:1" fill="#c9ab88" d="M 199.5,131.5 C 200.468,133.607 200.802,135.941 200.5,138.5C 198.901,138.768 197.568,138.434 196.5,137.5C 197.5,137.5 198.5,137.5 199.5,137.5C 199.5,135.5 199.5,133.5 199.5,131.5 Z"/></g>
<g><path style="opacity:1" fill="#795222" d="M 205.5,125.5 C 205.898,128.483 206.232,131.483 206.5,134.5C 207.163,138.321 205.829,141.154 202.5,143C 198.514,143.499 194.514,143.666 190.5,143.5C 188.273,142.599 187.273,140.933 187.5,138.5C 185.139,138.326 182.806,137.993 180.5,137.5C 181.718,136.839 183.051,136.172 184.5,135.5C 183.757,134.818 183.091,134.151 182.5,133.5C 187.285,134.654 191.952,135.987 196.5,137.5C 197.568,138.434 198.901,138.768 200.5,138.5C 200.802,135.941 200.468,133.607 199.5,131.5C 199.672,130.508 199.338,129.842 198.5,129.5C 198.167,127.5 197.833,125.5 197.5,123.5C 196.5,123.5 195.5,123.5 194.5,123.5C 193.5,123.5 192.5,123.5 191.5,123.5C 191.5,122.5 191.5,121.5 191.5,120.5C 194.724,120.797 197.724,120.13 200.5,118.5C 201.498,120.49 202.498,122.49 203.5,124.5C 203.957,125.298 204.624,125.631 205.5,125.5 Z"/></g>
<g><path style="opacity:1" fill="#705335" d="M 205.5,125.5 C 206.222,125.918 206.722,126.584 207,127.5C 207.667,132.167 207.667,136.833 207,141.5C 205.826,143.671 203.993,144.671 201.5,144.5C 197.629,144.815 193.962,144.482 190.5,143.5C 194.514,143.666 198.514,143.499 202.5,143C 205.829,141.154 207.163,138.321 206.5,134.5C 206.232,131.483 205.898,128.483 205.5,125.5 Z"/></g>
<g><path style="opacity:1" fill="#f9f3e3" d="M 17.5,141.5 C 21.5138,141.334 25.5138,141.501 29.5,142C 34.9052,145.736 39.2385,150.403 42.5,156C 44.8098,156.497 47.1432,156.663 49.5,156.5C 50.5274,158.194 51.8608,159.527 53.5,160.5C 49.9277,160.062 46.4277,159.396 43,158.5C 42.6667,158.833 42.3333,159.167 42,159.5C 38.2298,154.381 34.3964,149.214 30.5,144C 26.5,143.667 22.5,143.333 18.5,143C 17.944,142.617 17.6107,142.117 17.5,141.5 Z"/></g>
<g><path style="opacity:1" fill="#8d6938" d="M 40.5,134.5 C 40.2407,136.989 41.2407,138.656 43.5,139.5C 45.5116,142.205 47.5116,144.872 49.5,147.5C 53.9482,150.091 58.6148,152.091 63.5,153.5C 60.8589,152.737 58.1922,152.57 55.5,153C 55.8333,153.333 56.1667,153.667 56.5,154C 53.9963,154.698 51.663,155.531 49.5,156.5C 47.1432,156.663 44.8098,156.497 42.5,156C 39.2385,150.403 34.9052,145.736 29.5,142C 25.5138,141.501 21.5138,141.334 17.5,141.5C 17.5,141.167 17.5,140.833 17.5,140.5C 21.1817,140.665 24.8484,140.499 28.5,140C 32.4023,137.881 36.4023,136.048 40.5,134.5 Z"/></g>
<g><path style="opacity:1" fill="#faf2d6" d="M 49.5,147.5 C 64.9443,149.694 80.2776,152.527 95.5,156C 109.496,156.5 123.496,156.667 137.5,156.5C 121.675,157.496 105.675,157.83 89.5,157.5C 80.9686,156.059 72.3019,154.725 63.5,153.5C 58.6148,152.091 53.9482,150.091 49.5,147.5 Z"/></g>
<g><path style="opacity:1" fill="#8d6b42" d="M 175.5,136.5 C 177.042,137.301 178.708,137.634 180.5,137.5C 182.806,137.993 185.139,138.326 187.5,138.5C 187.273,140.933 188.273,142.599 190.5,143.5C 193.962,144.482 197.629,144.815 201.5,144.5C 196.296,145.534 190.963,145.7 185.5,145C 181.975,147.698 178.642,150.531 175.5,153.5C 172.67,156.682 169.336,159.015 165.5,160.5C 162.263,161.703 159.096,163.036 156,164.5C 151.16,163.216 146.326,163.216 141.5,164.5C 143.148,163.073 145.148,162.24 147.5,162C 151.486,161.501 155.486,161.334 159.5,161.5C 159.5,160.167 159.5,158.833 159.5,157.5C 154.187,156.902 148.854,156.569 143.5,156.5C 148.674,155.175 154.007,154.009 159.5,153C 163.358,149.803 167.191,146.637 171,143.5C 172.75,141.266 174.25,138.932 175.5,136.5 Z"/></g>
<g><path style="opacity:1" fill="#886029" d="M 174.5,143.5 C 175.833,143.5 177.167,143.5 178.5,143.5C 178.785,145.288 178.452,146.955 177.5,148.5C 171.984,150.28 167.817,153.614 165,158.5C 163.72,158.387 162.887,157.72 162.5,156.5C 163.098,155.205 163.598,153.872 164,152.5C 168.281,150.384 171.781,147.384 174.5,143.5 Z"/></g>
<g><path style="opacity:1" fill="#855c2e" d="M 63.5,153.5 C 72.3019,154.725 80.9686,156.059 89.5,157.5C 105.995,158.662 122.662,158.828 139.5,158C 140.416,157.722 141.082,157.222 141.5,156.5C 142.167,156.5 142.833,156.5 143.5,156.5C 148.854,156.569 154.187,156.902 159.5,157.5C 159.5,158.833 159.5,160.167 159.5,161.5C 155.486,161.334 151.486,161.501 147.5,162C 145.148,162.24 143.148,163.073 141.5,164.5C 140.391,164.557 139.391,164.89 138.5,165.5C 137.833,165.5 137.167,165.5 136.5,165.5C 136.953,164.542 137.619,163.708 138.5,163C 137.359,162.259 137.359,161.425 138.5,160.5C 137.833,160.167 137.167,159.833 136.5,159.5C 134.377,160.312 132.21,160.978 130,161.5C 116.874,159.923 103.707,159.423 90.5,160C 92.1066,161.049 92.7733,162.549 92.5,164.5C 106.797,165.449 121.131,165.782 135.5,165.5C 120.961,166.808 106.294,166.808 91.5,165.5C 91.1667,165.5 90.8333,165.5 90.5,165.5C 90.1583,164.662 89.4916,164.328 88.5,164.5C 75.5263,162.758 62.5263,160.091 49.5,156.5C 51.663,155.531 53.9963,154.698 56.5,154C 56.1667,153.667 55.8333,153.333 55.5,153C 58.1922,152.57 60.8589,152.737 63.5,153.5 Z"/></g>
<g><path style="opacity:1" fill="#997d58" d="M 137.5,156.5 C 138.833,156.5 140.167,156.5 141.5,156.5C 141.082,157.222 140.416,157.722 139.5,158C 122.662,158.828 105.995,158.662 89.5,157.5C 105.675,157.83 121.675,157.496 137.5,156.5 Z"/></g>
<g><path style="opacity:1" fill="#8c5b29" d="M 136.5,165.5 C 136.167,165.5 135.833,165.5 135.5,165.5C 121.131,165.782 106.797,165.449 92.5,164.5C 92.7733,162.549 92.1066,161.049 90.5,160C 103.707,159.423 116.874,159.923 130,161.5C 132.21,160.978 134.377,160.312 136.5,159.5C 137.167,159.833 137.833,160.167 138.5,160.5C 137.359,161.425 137.359,162.259 138.5,163C 137.619,163.708 136.953,164.542 136.5,165.5 Z"/></g>
<g><path style="opacity:1" fill="#937552" d="M 49.5,156.5 C 62.5263,160.091 75.5263,162.758 88.5,164.5C 78.7997,165.349 69.4664,164.183 60.5,161C 58.1902,160.503 55.8568,160.337 53.5,160.5C 51.8608,159.527 50.5274,158.194 49.5,156.5 Z"/></g>
<g><path style="opacity:1" fill="#f3e2ce" d="M 53.5,160.5 C 55.8568,160.337 58.1902,160.503 60.5,161C 69.4664,164.183 78.7997,165.349 88.5,164.5C 89.4916,164.328 90.1583,164.662 90.5,165.5C 83.1667,165.5 75.8333,165.5 68.5,165.5C 63.874,163.958 58.874,162.291 53.5,160.5 Z"/></g>
<g><path style="opacity:1" fill="#f6ebdc" d="M 165.5,160.5 C 165.698,163.998 163.864,166.331 160,167.5C 152.513,166.311 145.013,166.311 137.5,167.5C 137.833,166.833 138.167,166.167 138.5,165.5C 139.391,164.89 140.391,164.557 141.5,164.5C 146.326,163.216 151.16,163.216 156,164.5C 159.096,163.036 162.263,161.703 165.5,160.5 Z"/></g>
<g><path style="opacity:1" fill="#9d7e5c" d="M 91.5,165.5 C 106.294,166.808 120.961,166.808 135.5,165.5C 135.833,165.5 136.167,165.5 136.5,165.5C 137.167,165.5 137.833,165.5 138.5,165.5C 138.167,166.167 137.833,166.833 137.5,167.5C 134.236,168.324 130.902,168.658 127.5,168.5C 116.007,167.669 104.341,167.169 92.5,167C 91.944,166.617 91.6107,166.117 91.5,165.5 Z"/></g>
<g><path style="opacity:1" fill="#dfcab3" d="M 90.5,165.5 C 90.8333,165.5 91.1667,165.5 91.5,165.5C 91.6107,166.117 91.944,166.617 92.5,167C 104.341,167.169 116.007,167.669 127.5,168.5C 115.789,168.422 104.122,168.588 92.5,169C 91.1772,168.184 90.5106,167.017 90.5,165.5 Z"/></g>
<g><path style="opacity:1" fill="#fef9ef" d="M 68.5,165.5 C 75.8333,165.5 83.1667,165.5 90.5,165.5C 90.5106,167.017 91.1772,168.184 92.5,169C 104.122,168.588 115.789,168.422 127.5,168.5C 130.902,168.658 134.236,168.324 137.5,167.5C 136.942,168.79 135.942,169.623 134.5,170C 119.75,170.972 106.416,171.472 94.5,171.5C 93.5,171.333 92.5,171.167 91.5,171C 90.8333,169.667 89.8333,168.667 88.5,168C 82.5,167.667 76.5,167.333 70.5,167C 69.5842,166.722 68.9175,166.222 68.5,165.5 Z"/></g>
</svg>
