<?xml version="1.0" encoding="UTF-8"?>
<svg xmlns="http://www.w3.org/2000/svg" xmlns:xlink="http://www.w3.org/1999/xlink" width="40px" height="36px" viewBox="0 0 39 36" version="1.1" style="background-color:transparent;">
  <g id="surface1">
    <path style=" stroke:none;fill-rule:evenodd;fill:rgb(99.607843%,99.607843%,99.607843%);fill-opacity:1;" d="M -0.0859375 -0.0898438 C 12.914062 -0.0898438 25.914062 -0.0898438 38.914062 -0.0898438 C 38.914062 11.910156 38.914062 23.910156 38.914062 35.910156 C 25.914062 35.910156 12.914062 35.910156 -0.0859375 35.910156 C -0.0859375 23.910156 -0.0859375 11.910156 -0.0859375 -0.0898438 Z M -0.0859375 -0.0898438 "/>
    <path style=" stroke:none;fill-rule:evenodd;fill:rgb(34.509805%,21.568628%,7.450981%);fill-opacity:1;" d="M 14.015625 8.207031 C 14.828125 8.96875 15.640625 9.734375 16.453125 10.5 C 16.511719 10.617188 16.570312 10.734375 16.628906 10.851562 C 16.359375 10.816406 16.125 10.699219 15.929688 10.5 C 15.699219 10.734375 15.464844 10.734375 15.234375 10.5 C 15.054688 10.5625 14.941406 10.679688 14.886719 10.851562 C 14.191406 10.207031 13.492188 9.558594 12.796875 8.910156 C 12.679688 8.910156 12.621094 8.851562 12.621094 8.734375 C 12.113281 8.613281 11.59375 8.464844 11.054688 8.292969 C 10.996094 8.234375 10.941406 8.175781 10.882812 8.117188 C 11.152344 8.066406 11.382812 7.949219 11.578125 7.765625 C 12.40625 7.777344 13.21875 7.925781 14.015625 8.207031 Z M 14.015625 8.207031 "/>
    <path style=" stroke:none;fill-rule:evenodd;fill:rgb(97.254902%,94.901961%,88.627452%);fill-opacity:1;" d="M 29.164062 9.265625 C 28.929688 9.03125 28.699219 8.792969 28.464844 8.558594 C 27.722656 7.542969 26.734375 7.160156 25.507812 7.410156 C 25.230469 7.578125 24.996094 7.785156 24.808594 8.03125 C 24.234375 8.515625 23.597656 8.871094 22.894531 9.089844 C 22.675781 9.546875 22.472656 10.015625 22.285156 10.5 C 22.15625 10.609375 22.011719 10.699219 21.851562 10.765625 C 20.167969 10.851562 18.484375 10.882812 16.800781 10.851562 C 16.742188 10.851562 16.683594 10.851562 16.628906 10.851562 C 16.570312 10.734375 16.511719 10.617188 16.453125 10.5 C 18.3125 10.558594 20.171875 10.5 22.023438 10.324219 C 22.144531 9.671875 22.289062 9.023438 22.460938 8.382812 C 22.519531 8.5 22.574219 8.617188 22.632812 8.734375 C 23.601562 8.40625 24.445312 7.847656 25.160156 7.058594 C 26.316406 6.585938 27.363281 6.765625 28.292969 7.589844 C 28.582031 8 28.929688 8.351562 29.335938 8.648438 C 29.191406 8.824219 29.132812 9.03125 29.164062 9.265625 Z M 29.164062 9.265625 "/>
    <path style=" stroke:none;fill-rule:evenodd;fill:rgb(32.941177%,23.137255%,9.803922%);fill-opacity:1;" d="M 28.464844 8.558594 C 27.773438 8.34375 27.136719 8.046875 26.550781 7.675781 C 26.101562 7.691406 25.75 7.898438 25.507812 8.292969 C 25.824219 8.328125 26.054688 8.476562 26.203125 8.734375 C 25.855469 9.03125 25.507812 9.324219 25.160156 9.617188 C 25.230469 9.179688 25.054688 8.945312 24.636719 8.910156 C 24.617188 8.804688 24.558594 8.714844 24.460938 8.648438 C 24.691406 8.503906 24.808594 8.296875 24.808594 8.03125 C 24.996094 7.785156 25.230469 7.578125 25.507812 7.410156 C 26.734375 7.160156 27.722656 7.542969 28.464844 8.558594 Z M 28.464844 8.558594 "/>
    <path style=" stroke:none;fill-rule:evenodd;fill:rgb(44.313726%,36.470589%,20.784314%);fill-opacity:1;" d="M 24.808594 8.03125 C 24.808594 8.296875 24.691406 8.503906 24.460938 8.648438 C 24.558594 8.714844 24.617188 8.804688 24.636719 8.910156 C 24.316406 9.101562 23.96875 9.25 23.589844 9.351562 C 23.382812 9.511719 23.238281 9.71875 23.15625 9.96875 C 23.019531 9.628906 23.105469 9.363281 23.417969 9.175781 C 23.253906 9.089844 23.078125 9.0625 22.894531 9.089844 C 23.597656 8.871094 24.234375 8.515625 24.808594 8.03125 Z M 24.808594 8.03125 "/>
    <path style=" stroke:none;fill-rule:evenodd;fill:rgb(95.686275%,93.725491%,87.843138%);fill-opacity:1;" d="M 16.453125 10.5 C 15.640625 9.734375 14.828125 8.96875 14.015625 8.207031 C 13.804688 7.863281 13.515625 7.597656 13.144531 7.410156 C 12.179688 7.234375 11.25 7.324219 10.359375 7.675781 C 10.371094 7.457031 10.488281 7.308594 10.707031 7.234375 C 12.128906 6.980469 13.460938 7.183594 14.710938 7.851562 C 15.121094 8.574219 15.671875 9.164062 16.367188 9.617188 C 16.453125 9.90625 16.480469 10.199219 16.453125 10.5 Z M 16.453125 10.5 "/>
    <path style=" stroke:none;fill-rule:evenodd;fill:rgb(41.960785%,27.450982%,10.588235%);fill-opacity:1;" d="M 28.464844 8.558594 C 28.785156 10.164062 29.367188 11.546875 30.207031 12.707031 C 30.175781 13.082031 30.003906 13.257812 29.683594 13.234375 C 29.484375 12.945312 29.253906 12.679688 28.988281 12.441406 C 28.894531 11.863281 28.691406 11.332031 28.378906 10.851562 C 28.246094 10.660156 28.101562 10.660156 27.945312 10.851562 C 27.570312 10.21875 27.195312 9.570312 26.8125 8.910156 C 26.636719 8.765625 26.433594 8.707031 26.203125 8.734375 C 26.054688 8.476562 25.824219 8.328125 25.507812 8.292969 C 25.75 7.898438 26.101562 7.691406 26.550781 7.675781 C 27.136719 8.046875 27.773438 8.34375 28.464844 8.558594 Z M 28.464844 8.558594 "/>
    <path style=" stroke:none;fill-rule:evenodd;fill:rgb(45.09804%,30.980393%,14.509805%);fill-opacity:1;" d="M 10.011719 8.03125 C 10.011719 8.207031 10.011719 8.382812 10.011719 8.558594 C 10.214844 8.519531 10.390625 8.578125 10.535156 8.734375 C 10.335938 8.898438 10.335938 9.046875 10.535156 9.175781 C 9.867188 10.574219 9.113281 11.925781 8.269531 13.234375 C 8.34375 13.609375 8.257812 13.992188 8.007812 14.382812 C 7.855469 15.351562 7.710938 16.324219 7.574219 17.292969 C 7.578125 17.484375 7.636719 17.628906 7.746094 17.734375 C 7.777344 18.152344 7.746094 18.5625 7.660156 18.96875 C 7.484375 19.117188 7.28125 19.175781 7.050781 19.148438 C 6.648438 19.03125 6.242188 18.914062 5.832031 18.792969 C 5.449219 18.839844 5.160156 19.015625 4.960938 19.324219 C 4.738281 19.375 4.566406 19.492188 4.441406 19.675781 C 4.292969 19.738281 4.234375 19.855469 4.265625 20.03125 C 3.855469 19.984375 3.507812 20.101562 3.222656 20.382812 C 3.09375 20.167969 3.035156 19.933594 3.046875 19.675781 C 3.328125 18.863281 3.847656 18.277344 4.613281 17.910156 C 4.601562 17.988281 4.632812 18.046875 4.699219 18.089844 C 5.480469 17.832031 6.175781 17.417969 6.789062 16.851562 C 7 16.039062 7.175781 15.214844 7.3125 14.382812 C 7.578125 14.164062 7.78125 13.902344 7.921875 13.589844 C 7.910156 12.898438 7.851562 12.21875 7.746094 11.558594 C 8.089844 10.507812 8.613281 9.566406 9.316406 8.734375 C 9.488281 8.441406 9.722656 8.207031 10.011719 8.03125 Z M 10.011719 8.03125 "/>
    <path style=" stroke:none;fill-rule:evenodd;fill:rgb(99.215686%,97.254902%,85.09804%);fill-opacity:1;" d="M 12.621094 8.734375 C 12.621094 8.851562 12.679688 8.910156 12.796875 8.910156 C 12.914062 9.148438 12.914062 9.355469 12.796875 9.53125 C 13.730469 9.734375 13.84375 10.113281 13.144531 10.675781 C 12.722656 10.429688 12.605469 10.519531 12.796875 10.941406 C 13.082031 11.027344 13.371094 11.058594 13.667969 11.03125 C 13.496094 11.828125 13.816406 12.238281 14.625 12.265625 C 14.84375 12.21875 15.019531 12.101562 15.148438 11.910156 C 15.328125 12.507812 15.734375 12.859375 16.367188 12.96875 C 16.570312 12.878906 16.714844 12.734375 16.800781 12.53125 C 18.644531 12.386719 20.472656 12.414062 22.285156 12.617188 C 22.734375 12.527344 23.140625 12.351562 23.503906 12.089844 C 23.5625 12.148438 23.621094 12.207031 23.679688 12.265625 C 23.6875 11.792969 23.832031 11.324219 24.113281 10.851562 C 24.460938 10.441406 24.808594 10.03125 25.160156 9.617188 C 25.507812 9.324219 25.855469 9.03125 26.203125 8.734375 C 26.433594 8.707031 26.636719 8.765625 26.8125 8.910156 C 27.195312 9.570312 27.570312 10.21875 27.945312 10.851562 C 28.386719 11.929688 28.882812 12.988281 29.425781 14.03125 C 29.710938 15.3125 29.914062 16.605469 30.035156 17.910156 C 29.84375 17.597656 29.695312 17.246094 29.597656 16.851562 C 29.539062 17.089844 29.480469 17.324219 29.425781 17.558594 C 29.28125 17.15625 29.164062 16.742188 29.074219 16.324219 C 28.421875 15.800781 28.015625 15.976562 27.855469 16.851562 C 27.804688 16.628906 27.714844 16.421875 27.597656 16.234375 C 26.902344 16.148438 26.207031 16.117188 25.507812 16.148438 C 25.644531 17.445312 25.730469 18.738281 25.769531 20.03125 C 25.714844 19.886719 25.628906 19.769531 25.507812 19.675781 C 25.382812 20.0625 25.265625 20.445312 25.160156 20.824219 C 23.863281 21.535156 23.164062 21.152344 23.070312 19.675781 C 23.238281 19.066406 23.296875 18.417969 23.242188 17.734375 C 23.289062 17.394531 23.203125 17.101562 22.980469 16.851562 C 22.859375 17.53125 22.65625 18.175781 22.371094 18.792969 C 22.246094 18.410156 22.132812 18.027344 22.023438 17.648438 C 20.285156 17.558594 18.542969 17.53125 16.800781 17.558594 C 16.605469 16.625 16.34375 16.625 16.019531 17.558594 C 15.960938 18.382812 15.902344 19.207031 15.84375 20.03125 C 15.714844 20.351562 15.539062 20.648438 15.320312 20.910156 C 15.253906 20.8125 15.167969 20.753906 15.058594 20.734375 C 15.199219 19.527344 14.96875 18.410156 14.363281 17.382812 C 14.078125 18.421875 13.902344 19.484375 13.839844 20.558594 C 13.71875 19.640625 13.601562 18.699219 13.492188 17.734375 C 12.738281 17.609375 11.980469 17.492188 11.230469 17.382812 C 10.988281 16.945312 10.839844 16.476562 10.792969 15.96875 C 10.136719 16.582031 9.761719 17.34375 9.664062 18.265625 C 9.488281 18.265625 9.316406 18.265625 9.140625 18.265625 C 9.210938 18.769531 9.039062 19.152344 8.617188 19.410156 C 8.988281 19.457031 9.277344 19.632812 9.488281 19.941406 C 9.140625 20.25 8.734375 20.425781 8.269531 20.46875 C 8.558594 20.53125 8.851562 20.589844 9.140625 20.648438 C 8.808594 20.902344 8.519531 21.195312 8.269531 21.53125 C 8.539062 21.617188 8.796875 21.585938 9.054688 21.441406 C 9.542969 21.636719 9.800781 21.992188 9.835938 22.5 C 9.730469 22.804688 9.554688 23.070312 9.316406 23.292969 C 8.78125 23.445312 8.257812 23.621094 7.746094 23.824219 C 7.59375 24.0625 7.535156 24.328125 7.574219 24.617188 C 7.179688 24.46875 7.007812 24.175781 7.050781 23.734375 C 7.050781 23.675781 7.050781 23.617188 7.050781 23.558594 C 7.773438 23.222656 8.46875 22.839844 9.140625 22.410156 C 8.554688 22.316406 7.972656 22.34375 7.398438 22.5 C 7.597656 22.179688 7.710938 21.828125 7.746094 21.441406 C 7.949219 21.304688 8.125 21.128906 8.269531 20.910156 C 8.125 20.753906 7.953125 20.695312 7.746094 20.734375 C 7.691406 20.734375 7.632812 20.734375 7.574219 20.734375 C 6.878906 20.617188 6.179688 20.5 5.484375 20.382812 C 6.402344 20.222656 7.332031 20.164062 8.269531 20.207031 C 8.269531 20.03125 8.269531 19.851562 8.269531 19.675781 C 7.972656 19.703125 7.683594 19.675781 7.398438 19.589844 C 7.179688 19.515625 7.066406 19.367188 7.050781 19.148438 C 7.28125 19.175781 7.484375 19.117188 7.660156 18.96875 C 7.746094 18.5625 7.777344 18.152344 7.746094 17.734375 C 8.335938 14.441406 9.613281 11.46875 11.578125 8.824219 C 11.921875 8.734375 12.269531 8.707031 12.621094 8.734375 Z M 12.621094 8.734375 "/>
    <path style=" stroke:none;fill-rule:evenodd;fill:rgb(38.039216%,27.843139%,12.54902%);fill-opacity:1;" d="M 24.636719 8.910156 C 25.054688 8.945312 25.230469 9.179688 25.160156 9.617188 C 24.808594 10.03125 24.460938 10.441406 24.113281 10.851562 C 23.621094 11.324219 23.097656 11.765625 22.546875 12.175781 C 20.75 12.265625 18.949219 12.292969 17.148438 12.265625 C 18.859375 12.117188 20.601562 12.03125 22.371094 12 C 22.175781 11.820312 22.234375 11.703125 22.546875 11.648438 C 22.351562 11.601562 22.175781 11.515625 22.023438 11.382812 C 22.167969 11.214844 22.199219 11.039062 22.113281 10.851562 C 20.324219 11.085938 18.554688 11.085938 16.800781 10.851562 C 18.484375 10.882812 20.167969 10.851562 21.851562 10.765625 C 22.011719 10.699219 22.15625 10.609375 22.285156 10.5 C 22.472656 10.015625 22.675781 9.546875 22.894531 9.089844 C 23.078125 9.0625 23.253906 9.089844 23.417969 9.175781 C 23.105469 9.363281 23.019531 9.628906 23.15625 9.96875 C 23.238281 9.71875 23.382812 9.511719 23.589844 9.351562 C 23.96875 9.25 24.316406 9.101562 24.636719 8.910156 Z M 24.636719 8.910156 "/>
    <path style=" stroke:none;fill-rule:evenodd;fill:rgb(98.039216%,96.862745%,91.764706%);fill-opacity:1;" d="M 9.316406 8.734375 C 8.613281 9.566406 8.089844 10.507812 7.746094 11.558594 C 7.007812 13.058594 6.574219 14.648438 6.441406 16.324219 C 6.394531 16.484375 6.304688 16.601562 6.179688 16.675781 C 6.082031 16.046875 6.109375 15.398438 6.269531 14.734375 C 6.476562 14.039062 6.652344 13.332031 6.789062 12.617188 C 7.140625 12.285156 7.34375 11.875 7.398438 11.382812 C 7.164062 11.0625 7.078125 10.707031 7.136719 10.324219 C 7.316406 10.125 7.429688 10.183594 7.488281 10.5 C 7.550781 9.960938 7.664062 9.902344 7.835938 10.324219 C 8.152344 9.792969 8.472656 9.265625 8.792969 8.734375 C 8.953125 8.546875 9.128906 8.546875 9.316406 8.734375 Z M 9.316406 8.734375 "/>
    <path style=" stroke:none;fill-rule:evenodd;fill:rgb(29.803923%,19.215687%,7.058824%);fill-opacity:1;" d="M 16.628906 10.851562 C 16.683594 10.851562 16.742188 10.851562 16.800781 10.851562 C 18.554688 11.085938 20.324219 11.085938 22.113281 10.851562 C 22.199219 11.039062 22.167969 11.214844 22.023438 11.382812 C 22.175781 11.515625 22.351562 11.601562 22.546875 11.648438 C 22.234375 11.703125 22.175781 11.820312 22.371094 12 C 20.601562 12.03125 18.859375 12.117188 17.148438 12.265625 C 16.140625 12.246094 15.386719 11.777344 14.886719 10.851562 C 14.941406 10.679688 15.054688 10.5625 15.234375 10.5 C 15.464844 10.734375 15.699219 10.734375 15.929688 10.5 C 16.125 10.699219 16.359375 10.816406 16.628906 10.851562 Z M 16.628906 10.851562 "/>
    <path style=" stroke:none;fill-rule:evenodd;fill:rgb(96.862745%,90.980393%,76.862746%);fill-opacity:1;" d="M 12.796875 8.910156 C 13.492188 9.558594 14.191406 10.207031 14.886719 10.851562 C 15.386719 11.777344 16.140625 12.246094 17.148438 12.265625 C 18.949219 12.292969 20.75 12.265625 22.546875 12.175781 C 23.097656 11.765625 23.621094 11.324219 24.113281 10.851562 C 23.832031 11.324219 23.6875 11.792969 23.679688 12.265625 C 23.621094 12.207031 23.5625 12.148438 23.503906 12.089844 C 23.140625 12.351562 22.734375 12.527344 22.285156 12.617188 C 20.472656 12.414062 18.644531 12.386719 16.800781 12.53125 C 16.714844 12.734375 16.570312 12.878906 16.367188 12.96875 C 15.734375 12.859375 15.328125 12.507812 15.148438 11.910156 C 15.019531 12.101562 14.84375 12.21875 14.625 12.265625 C 13.816406 12.238281 13.496094 11.828125 13.667969 11.03125 C 13.371094 11.058594 13.082031 11.027344 12.796875 10.941406 C 12.605469 10.519531 12.722656 10.429688 13.144531 10.675781 C 13.84375 10.113281 13.730469 9.734375 12.796875 9.53125 C 12.914062 9.355469 12.914062 9.148438 12.796875 8.910156 Z M 12.796875 8.910156 "/>
    <path style=" stroke:none;fill-rule:evenodd;fill:rgb(98.039216%,95.294118%,89.803922%);fill-opacity:1;" d="M 29.164062 9.265625 C 29.429688 9.472656 29.691406 9.707031 29.945312 9.96875 C 30.789062 11.882812 31.453125 13.851562 31.949219 15.882812 C 31.765625 16.128906 31.734375 16.390625 31.863281 16.675781 C 32.5 17.070312 33.109375 17.484375 33.691406 17.910156 C 33.574219 17.910156 33.457031 17.910156 33.339844 17.910156 C 31.917969 17.527344 31.222656 16.585938 31.253906 15.089844 C 30.851562 14.074219 30.589844 13.015625 30.46875 11.910156 C 30.015625 11.03125 29.582031 10.152344 29.164062 9.265625 Z M 29.164062 9.265625 "/>
    <path style=" stroke:none;fill-rule:evenodd;fill:rgb(40.000001%,29.019609%,14.509805%);fill-opacity:1;" d="M 14.015625 8.207031 C 13.21875 7.925781 12.40625 7.777344 11.578125 7.765625 C 11.382812 7.949219 11.152344 8.066406 10.882812 8.117188 C 10.941406 8.175781 10.996094 8.234375 11.054688 8.292969 C 11.59375 8.464844 12.113281 8.613281 12.621094 8.734375 C 12.269531 8.707031 11.921875 8.734375 11.578125 8.824219 C 9.613281 11.46875 8.335938 14.441406 7.746094 17.734375 C 7.636719 17.628906 7.578125 17.484375 7.574219 17.292969 C 7.710938 16.324219 7.855469 15.351562 8.007812 14.382812 C 8.257812 13.992188 8.34375 13.609375 8.269531 13.234375 C 9.113281 11.925781 9.867188 10.574219 10.535156 9.175781 C 10.335938 9.046875 10.335938 8.898438 10.535156 8.734375 C 10.390625 8.578125 10.214844 8.519531 10.011719 8.558594 C 10.011719 8.382812 10.011719 8.207031 10.011719 8.03125 C 10.183594 7.96875 10.300781 7.851562 10.359375 7.675781 C 11.25 7.324219 12.179688 7.234375 13.144531 7.410156 C 13.515625 7.597656 13.804688 7.863281 14.015625 8.207031 Z M 14.015625 8.207031 "/>
    <path style=" stroke:none;fill-rule:evenodd;fill:rgb(42.745098%,30.980393%,17.254902%);fill-opacity:1;" d="M 28.464844 8.558594 C 28.699219 8.792969 28.929688 9.03125 29.164062 9.265625 C 29.582031 10.152344 30.015625 11.03125 30.46875 11.910156 C 30.589844 13.015625 30.851562 14.074219 31.253906 15.089844 C 31.28125 15.972656 31.253906 16.855469 31.164062 17.734375 C 31.113281 17.957031 31.023438 18.164062 30.902344 18.351562 C 31.222656 18.75 31.457031 19.191406 31.601562 19.675781 C 31.375 19.632812 31.203125 19.695312 31.078125 19.851562 C 30.792969 19.890625 30.53125 19.832031 30.292969 19.675781 C 30.261719 19.054688 30.175781 18.464844 30.035156 17.910156 C 29.914062 16.605469 29.710938 15.3125 29.425781 14.03125 C 28.882812 12.988281 28.386719 11.929688 27.945312 10.851562 C 28.101562 10.660156 28.246094 10.660156 28.378906 10.851562 C 28.691406 11.332031 28.894531 11.863281 28.988281 12.441406 C 29.253906 12.679688 29.484375 12.945312 29.683594 13.234375 C 30.003906 13.257812 30.175781 13.082031 30.207031 12.707031 C 29.367188 11.546875 28.785156 10.164062 28.464844 8.558594 Z M 28.464844 8.558594 "/>
    <path style=" stroke:none;fill-rule:evenodd;fill:rgb(50.588238%,38.431373%,23.529412%);fill-opacity:1;" d="M 7.746094 11.558594 C 7.851562 12.21875 7.910156 12.898438 7.921875 13.589844 C 7.78125 13.902344 7.578125 14.164062 7.3125 14.382812 C 7.175781 15.214844 7 16.039062 6.789062 16.851562 C 6.175781 17.417969 5.480469 17.832031 4.699219 18.089844 C 4.632812 18.046875 4.601562 17.988281 4.613281 17.910156 C 5.105469 17.457031 5.628906 17.046875 6.179688 16.675781 C 6.304688 16.601562 6.394531 16.484375 6.441406 16.324219 C 6.574219 14.648438 7.007812 13.058594 7.746094 11.558594 Z M 7.746094 11.558594 "/>
    <path style=" stroke:none;fill-rule:evenodd;fill:rgb(99.215686%,98.823529%,89.019608%);fill-opacity:1;" d="M 30.035156 17.910156 C 30.175781 18.464844 30.261719 19.054688 30.292969 19.675781 C 30.53125 19.832031 30.792969 19.890625 31.078125 19.851562 C 31.960938 19.808594 32.800781 19.75 33.601562 19.675781 C 34.132812 19.90625 34.335938 20.316406 34.210938 20.910156 C 33.726562 21.085938 33.203125 21.144531 32.644531 21.089844 C 31.707031 21.136719 30.777344 21.078125 29.859375 20.910156 C 29.652344 20.972656 29.652344 21.0625 29.859375 21.175781 C 29.171875 21.320312 29.171875 21.40625 29.859375 21.441406 C 29.859375 21.675781 29.859375 21.910156 29.859375 22.148438 C 29.421875 22.066406 29.074219 22.1875 28.816406 22.5 C 28.46875 22.503906 28.296875 22.328125 28.292969 21.96875 C 28.601562 21.484375 28.773438 20.953125 28.816406 20.382812 C 28.519531 20.300781 28.257812 20.300781 28.03125 20.382812 C 27.878906 19.902344 27.558594 19.667969 27.074219 19.675781 C 27.085938 20.121094 26.914062 20.472656 26.550781 20.734375 C 26.449219 20.699219 26.363281 20.640625 26.289062 20.558594 C 26.105469 21.390625 25.585938 21.800781 24.722656 21.792969 C 23.710938 21.804688 23.042969 21.273438 22.722656 20.207031 C 22.710938 19.933594 22.828125 19.757812 23.070312 19.675781 C 23.164062 21.152344 23.863281 21.535156 25.160156 20.824219 C 25.265625 20.445312 25.382812 20.0625 25.507812 19.675781 C 25.628906 19.769531 25.714844 19.886719 25.769531 20.03125 C 25.730469 18.738281 25.644531 17.445312 25.507812 16.148438 C 26.207031 16.117188 26.902344 16.148438 27.597656 16.234375 C 27.714844 16.421875 27.804688 16.628906 27.855469 16.851562 C 28.015625 15.976562 28.421875 15.800781 29.074219 16.324219 C 29.164062 16.742188 29.28125 17.15625 29.425781 17.558594 C 29.480469 17.324219 29.539062 17.089844 29.597656 16.851562 C 29.695312 17.246094 29.84375 17.597656 30.035156 17.910156 Z M 30.035156 17.910156 "/>
    <path style=" stroke:none;fill-rule:evenodd;fill:rgb(99.607843%,99.607843%,89.411765%);fill-opacity:1;" d="M 13.839844 20.558594 C 14.203125 20.929688 14.609375 20.988281 15.058594 20.734375 C 15.167969 20.753906 15.253906 20.8125 15.320312 20.910156 C 15.539062 20.648438 15.714844 20.351562 15.84375 20.03125 C 15.902344 19.207031 15.960938 18.382812 16.019531 17.558594 C 16.34375 16.625 16.605469 16.625 16.800781 17.558594 C 18.542969 17.53125 20.285156 17.558594 22.023438 17.648438 C 22.132812 18.027344 22.246094 18.410156 22.371094 18.792969 C 22.65625 18.175781 22.859375 17.53125 22.980469 16.851562 C 23.203125 17.101562 23.289062 17.394531 23.242188 17.734375 C 23.121094 18.398438 22.832031 18.988281 22.371094 19.5 C 22.25 20.003906 22.132812 20.507812 22.023438 21 C 20.285156 21.117188 18.542969 21.117188 16.800781 21 C 16.695312 20.847656 16.550781 20.757812 16.367188 20.734375 C 15.890625 20.933594 15.457031 21.199219 15.058594 21.53125 C 14.65625 21.617188 14.25 21.644531 13.839844 21.617188 C 13.8125 21.144531 13.636719 20.734375 13.320312 20.382812 C 13.082031 20.5625 12.910156 20.796875 12.796875 21.089844 C 12.574219 20.171875 12.457031 20.171875 12.449219 21.089844 C 11.4375 21.167969 10.480469 20.992188 9.574219 20.558594 C 9.28125 20.828125 9.367188 21.003906 9.835938 21.089844 C 10.257812 21.40625 10.402344 21.816406 10.273438 22.324219 C 10.15625 22.457031 10.011719 22.515625 9.835938 22.5 C 9.800781 21.992188 9.542969 21.636719 9.054688 21.441406 C 8.796875 21.585938 8.539062 21.617188 8.269531 21.53125 C 8.519531 21.195312 8.808594 20.902344 9.140625 20.648438 C 8.851562 20.589844 8.558594 20.53125 8.269531 20.46875 C 8.734375 20.425781 9.140625 20.25 9.488281 19.941406 C 9.277344 19.632812 8.988281 19.457031 8.617188 19.410156 C 9.039062 19.152344 9.210938 18.769531 9.140625 18.265625 C 9.316406 18.265625 9.488281 18.265625 9.664062 18.265625 C 9.761719 17.34375 10.136719 16.582031 10.792969 15.96875 C 10.839844 16.476562 10.988281 16.945312 11.230469 17.382812 C 11.980469 17.492188 12.738281 17.609375 13.492188 17.734375 C 13.601562 18.699219 13.71875 19.640625 13.839844 20.558594 Z M 13.839844 20.558594 "/>
    <path style=" stroke:none;fill-rule:evenodd;fill:rgb(53.725493%,40.784314%,25.490198%);fill-opacity:1;" d="M 31.253906 15.089844 C 31.222656 16.585938 31.917969 17.527344 33.339844 17.910156 C 33.035156 17.886719 32.746094 17.945312 32.472656 18.089844 C 32.277344 18.507812 32.160156 18.886719 32.121094 19.234375 C 32.289062 19.320312 32.460938 19.351562 32.644531 19.324219 C 32.332031 19.492188 31.984375 19.609375 31.601562 19.675781 C 31.457031 19.191406 31.222656 18.75 30.902344 18.351562 C 31.023438 18.164062 31.113281 17.957031 31.164062 17.734375 C 31.253906 16.855469 31.28125 15.972656 31.253906 15.089844 Z M 31.253906 15.089844 "/>
    <path style=" stroke:none;fill-rule:evenodd;fill:rgb(43.529412%,30.19608%,15.294118%);fill-opacity:1;" d="M 33.339844 17.910156 C 33.457031 17.910156 33.574219 17.910156 33.691406 17.910156 C 33.867188 18.117188 34.097656 18.238281 34.386719 18.265625 C 34.992188 18.453125 35.34375 18.867188 35.429688 19.5 C 35.460938 19.859375 35.429688 20.210938 35.34375 20.558594 C 35.289062 20.417969 35.203125 20.296875 35.082031 20.207031 C 34.867188 20.359375 34.636719 20.359375 34.386719 20.207031 C 34.054688 19.46875 33.476562 19.171875 32.644531 19.324219 C 32.460938 19.351562 32.289062 19.320312 32.121094 19.234375 C 32.160156 18.886719 32.277344 18.507812 32.472656 18.089844 C 32.746094 17.945312 33.035156 17.886719 33.339844 17.910156 Z M 33.339844 17.910156 "/>
    <path style=" stroke:none;fill-rule:evenodd;fill:rgb(99.215686%,99.607843%,92.156863%);fill-opacity:1;" d="M 23.242188 17.734375 C 23.296875 18.417969 23.238281 19.066406 23.070312 19.675781 C 22.828125 19.757812 22.710938 19.933594 22.722656 20.207031 C 23.042969 21.273438 23.710938 21.804688 24.722656 21.792969 C 25.585938 21.800781 26.105469 21.390625 26.289062 20.558594 C 26.363281 20.640625 26.449219 20.699219 26.550781 20.734375 C 26.914062 20.472656 27.085938 20.121094 27.074219 19.675781 C 27.558594 19.667969 27.878906 19.902344 28.03125 20.382812 C 28.257812 20.300781 28.519531 20.300781 28.816406 20.382812 C 28.773438 20.953125 28.601562 21.484375 28.292969 21.96875 C 28.296875 22.328125 28.46875 22.503906 28.816406 22.5 C 28.898438 22.75 29.070312 22.867188 29.335938 22.851562 C 29.941406 23.070312 30.347656 23.480469 30.554688 24.089844 C 30.339844 24.515625 30.078125 24.929688 29.773438 25.324219 C 29.109375 25.878906 28.441406 26.4375 27.769531 27 C 26.8125 27.179688 25.886719 27.382812 24.984375 27.617188 C 24.867188 27.617188 24.753906 27.617188 24.636719 27.617188 C 24.402344 27.617188 24.171875 27.617188 23.941406 27.617188 C 21.5 27.648438 19.0625 27.617188 16.628906 27.53125 C 13.976562 26.917969 11.308594 26.417969 8.617188 26.03125 C 8.273438 25.566406 7.925781 25.09375 7.574219 24.617188 C 7.535156 24.328125 7.59375 24.0625 7.746094 23.824219 C 8.257812 23.621094 8.78125 23.445312 9.316406 23.292969 C 9.554688 23.070312 9.730469 22.804688 9.835938 22.5 C 10.011719 22.515625 10.15625 22.457031 10.273438 22.324219 C 10.402344 21.816406 10.257812 21.40625 9.835938 21.089844 C 9.367188 21.003906 9.28125 20.828125 9.574219 20.558594 C 10.480469 20.992188 11.4375 21.167969 12.449219 21.089844 C 12.457031 20.171875 12.574219 20.171875 12.796875 21.089844 C 12.910156 20.796875 13.082031 20.5625 13.320312 20.382812 C 13.636719 20.734375 13.8125 21.144531 13.839844 21.617188 C 14.25 21.644531 14.65625 21.617188 15.058594 21.53125 C 15.457031 21.199219 15.890625 20.933594 16.367188 20.734375 C 16.550781 20.757812 16.695312 20.847656 16.800781 21 C 18.542969 21.117188 20.285156 21.117188 22.023438 21 C 22.132812 20.507812 22.25 20.003906 22.371094 19.5 C 22.832031 18.988281 23.121094 18.398438 23.242188 17.734375 Z M 23.242188 17.734375 "/>
    <path style=" stroke:none;fill-rule:evenodd;fill:rgb(90.980393%,83.92157%,73.725492%);fill-opacity:1;" d="M 32.644531 19.324219 C 33.476562 19.171875 34.054688 19.46875 34.386719 20.207031 C 34.433594 20.488281 34.375 20.722656 34.210938 20.910156 C 34.335938 20.316406 34.132812 19.90625 33.601562 19.675781 C 32.800781 19.75 31.960938 19.808594 31.078125 19.851562 C 31.203125 19.695312 31.375 19.632812 31.601562 19.675781 C 31.984375 19.609375 32.332031 19.492188 32.644531 19.324219 Z M 32.644531 19.324219 "/>
    <path style=" stroke:none;fill-rule:evenodd;fill:rgb(98.823529%,98.039216%,92.156863%);fill-opacity:1;" d="M 7.050781 19.148438 C 7.066406 19.367188 7.179688 19.515625 7.398438 19.589844 C 7.683594 19.675781 7.972656 19.703125 8.269531 19.675781 C 8.269531 19.851562 8.269531 20.03125 8.269531 20.207031 C 7.332031 20.164062 6.402344 20.222656 5.484375 20.382812 C 4.847656 20.269531 4.671875 19.914062 4.960938 19.324219 C 5.160156 19.015625 5.449219 18.839844 5.832031 18.792969 C 6.242188 18.914062 6.648438 19.03125 7.050781 19.148438 Z M 7.050781 19.148438 "/>
    <path style=" stroke:none;fill-rule:evenodd;fill:rgb(56.862748%,49.803922%,35.294119%);fill-opacity:1;" d="M 15.058594 20.734375 C 14.609375 20.988281 14.203125 20.929688 13.839844 20.558594 C 13.902344 19.484375 14.078125 18.421875 14.363281 17.382812 C 14.96875 18.410156 15.199219 19.527344 15.058594 20.734375 Z M 15.058594 20.734375 "/>
    <path style=" stroke:none;fill-rule:evenodd;fill:rgb(92.156863%,85.490197%,73.725492%);fill-opacity:1;" d="M 4.960938 19.324219 C 4.671875 19.914062 4.847656 20.269531 5.484375 20.382812 C 6.179688 20.5 6.878906 20.617188 7.574219 20.734375 C 6.628906 20.785156 5.699219 20.726562 4.789062 20.558594 C 4.53125 20.332031 4.417969 20.039062 4.441406 19.675781 C 4.566406 19.492188 4.738281 19.375 4.960938 19.324219 Z M 4.960938 19.324219 "/>
    <path style=" stroke:none;fill-rule:evenodd;fill:rgb(58.823532%,51.764709%,34.509805%);fill-opacity:1;" d="M 24.113281 17.558594 C 24.289062 17.542969 24.433594 17.601562 24.550781 17.734375 C 24.941406 18.640625 25.054688 19.582031 24.898438 20.558594 C 24.550781 20.792969 24.199219 20.792969 23.851562 20.558594 C 23.6875 19.527344 23.773438 18.527344 24.113281 17.558594 Z M 24.113281 17.558594 "/>
    <path style=" stroke:none;fill-rule:evenodd;fill:rgb(49.803922%,37.254903%,20.784314%);fill-opacity:1;" d="M 35.429688 19.5 C 35.574219 20.355469 35.691406 21.238281 35.777344 22.148438 C 35.625 22.171875 35.511719 22.113281 35.429688 21.96875 C 35.257812 21.617188 35.082031 21.261719 34.910156 20.910156 C 34.425781 21.199219 33.902344 21.316406 33.339844 21.265625 C 33.339844 21.441406 33.339844 21.617188 33.339844 21.792969 C 33.515625 21.792969 33.691406 21.792969 33.863281 21.792969 C 33.371094 21.949219 32.847656 21.949219 32.296875 21.792969 C 31.949219 21.792969 31.601562 21.792969 31.253906 21.792969 C 31.007812 21.6875 30.835938 21.511719 30.730469 21.265625 C 31.402344 21.320312 32.042969 21.261719 32.644531 21.089844 C 33.203125 21.144531 33.726562 21.085938 34.210938 20.910156 C 34.375 20.722656 34.433594 20.488281 34.386719 20.207031 C 34.636719 20.359375 34.867188 20.359375 35.082031 20.207031 C 35.203125 20.296875 35.289062 20.417969 35.34375 20.558594 C 35.429688 20.210938 35.460938 19.859375 35.429688 19.5 Z M 35.429688 19.5 "/>
    <path style=" stroke:none;fill-rule:evenodd;fill:rgb(46.666667%,31.764707%,18.039216%);fill-opacity:1;" d="M 4.789062 20.558594 C 5.699219 20.726562 6.628906 20.785156 7.574219 20.734375 C 7.632812 20.734375 7.691406 20.734375 7.746094 20.734375 C 7.765625 20.84375 7.824219 20.933594 7.921875 21 C 7.207031 21.167969 6.511719 21.3125 5.832031 21.441406 C 5.714844 21.441406 5.601562 21.441406 5.484375 21.441406 C 4.738281 21.625 4.273438 21.359375 4.089844 20.648438 C 4.316406 20.5625 4.546875 20.53125 4.789062 20.558594 Z M 4.789062 20.558594 "/>
    <path style=" stroke:none;fill-rule:evenodd;fill:rgb(59.607846%,46.666667%,30.588236%);fill-opacity:1;" d="M 4.441406 19.675781 C 4.417969 20.039062 4.53125 20.332031 4.789062 20.558594 C 4.546875 20.53125 4.316406 20.5625 4.089844 20.648438 C 4.273438 21.359375 4.738281 21.625 5.484375 21.441406 C 4.988281 21.558594 4.464844 21.675781 3.917969 21.792969 C 3.757812 22.367188 3.699219 22.957031 3.742188 23.558594 C 3.40625 22.300781 3.578125 21.121094 4.265625 20.03125 C 4.234375 19.855469 4.292969 19.738281 4.441406 19.675781 Z M 4.441406 19.675781 "/>
    <path style=" stroke:none;fill-rule:evenodd;fill:rgb(83.92157%,72.941178%,63.137257%);fill-opacity:1;" d="M 7.746094 20.734375 C 7.953125 20.695312 8.125 20.753906 8.269531 20.910156 C 8.125 21.128906 7.949219 21.304688 7.746094 21.441406 C 7.226562 21.441406 6.703125 21.441406 6.179688 21.441406 C 6.066406 21.441406 5.949219 21.441406 5.832031 21.441406 C 6.511719 21.3125 7.207031 21.167969 7.921875 21 C 7.824219 20.933594 7.765625 20.84375 7.746094 20.734375 Z M 7.746094 20.734375 "/>
    <path style=" stroke:none;fill-rule:evenodd;fill:rgb(63.921571%,54.901963%,41.960785%);fill-opacity:1;" d="M 30.730469 21.265625 C 30.835938 21.511719 31.007812 21.6875 31.253906 21.792969 C 30.875 21.863281 30.585938 21.746094 30.382812 21.441406 C 30.460938 21.300781 30.578125 21.242188 30.730469 21.265625 Z M 30.730469 21.265625 "/>
    <path style=" stroke:none;fill-rule:evenodd;fill:rgb(49.411765%,38.039216%,24.313726%);fill-opacity:1;" d="M 3.046875 19.675781 C 3.035156 19.933594 3.09375 20.167969 3.222656 20.382812 C 2.894531 21.097656 2.605469 21.832031 2.351562 22.589844 C 2.585938 23.109375 2.703125 23.667969 2.699219 24.265625 C 2.367188 23.652344 2.078125 23.007812 1.828125 22.324219 C 1.988281 21.8125 2.21875 21.339844 2.523438 20.910156 C 2.601562 20.441406 2.773438 20.03125 3.046875 19.675781 Z M 3.046875 19.675781 "/>
    <path style=" stroke:none;fill-rule:evenodd;fill:rgb(99.215686%,99.215686%,94.117647%);fill-opacity:1;" d="M 6.179688 21.441406 C 6.703125 21.441406 7.226562 21.441406 7.746094 21.441406 C 7.710938 21.828125 7.597656 22.179688 7.398438 22.5 C 6.300781 22.816406 5.199219 23.109375 4.089844 23.382812 C 4.039062 22.953125 4.097656 22.542969 4.265625 22.148438 C 4.832031 21.945312 5.410156 21.796875 6.007812 21.707031 C 6.101562 21.636719 6.160156 21.550781 6.179688 21.441406 Z M 6.179688 21.441406 "/>
    <path style=" stroke:none;fill-rule:evenodd;fill:rgb(60.392159%,49.019608%,34.509805%);fill-opacity:1;" d="M 32.296875 21.792969 C 32.847656 21.949219 33.371094 21.949219 33.863281 21.792969 C 34.039062 21.792969 34.210938 21.792969 34.386719 21.792969 C 34.445312 22.148438 34.503906 22.5 34.558594 22.851562 C 34.410156 22.644531 34.234375 22.4375 34.039062 22.234375 C 33.40625 22.210938 32.824219 22.0625 32.296875 21.792969 Z M 32.296875 21.792969 "/>
    <path style=" stroke:none;fill-rule:evenodd;fill:rgb(99.215686%,98.823529%,95.686275%);fill-opacity:1;" d="M 31.601562 23.382812 C 31.40625 23.371094 31.234375 23.3125 31.078125 23.207031 C 30.75 22.933594 30.574219 22.578125 30.554688 22.148438 C 31.84375 22.089844 33.0625 22.324219 34.210938 22.851562 C 34.679688 23.972656 34.390625 24.179688 33.339844 23.46875 C 32.765625 23.382812 32.183594 23.351562 31.601562 23.382812 Z M 31.601562 23.382812 "/>
    <path style=" stroke:none;fill-rule:evenodd;fill:rgb(98.431373%,97.254902%,92.54902%);fill-opacity:1;" d="M 34.386719 18.265625 C 35.667969 18.089844 36.132812 18.621094 35.777344 19.851562 C 36.066406 20.699219 36.242188 21.582031 36.300781 22.5 C 36.476562 22.5 36.648438 22.5 36.824219 22.5 C 36.765625 22.964844 36.878906 23.378906 37.171875 23.734375 C 36.921875 24.234375 36.804688 24.765625 36.824219 25.324219 C 36.253906 25.765625 35.585938 26.058594 34.820312 26.207031 C 33.996094 26.003906 33.152344 25.976562 32.296875 26.117188 C 31.882812 26.738281 31.304688 27.0625 30.554688 27.089844 C 31.101562 26.5625 31.683594 26.0625 32.296875 25.589844 C 33.246094 25.710938 34.175781 25.683594 35.082031 25.5 C 35.515625 25.53125 35.835938 25.355469 36.039062 24.96875 C 36.15625 24.148438 36.15625 23.324219 36.039062 22.5 C 35.992188 22.339844 35.90625 22.222656 35.777344 22.148438 C 35.691406 21.238281 35.574219 20.355469 35.429688 19.5 C 35.34375 18.867188 34.992188 18.453125 34.386719 18.265625 Z M 34.386719 18.265625 "/>
    <path style=" stroke:none;fill-rule:evenodd;fill:rgb(98.039216%,94.901961%,85.09804%);fill-opacity:1;" d="M 5.484375 21.441406 C 5.601562 21.441406 5.714844 21.441406 5.832031 21.441406 C 5.949219 21.441406 6.066406 21.441406 6.179688 21.441406 C 6.160156 21.550781 6.101562 21.636719 6.007812 21.707031 C 5.410156 21.796875 4.832031 21.945312 4.265625 22.148438 C 4.097656 22.542969 4.039062 22.953125 4.089844 23.382812 C 5.199219 23.109375 6.300781 22.816406 7.398438 22.5 C 6.894531 22.828125 6.371094 23.121094 5.832031 23.382812 C 5.300781 23.445312 4.777344 23.5625 4.265625 23.734375 C 4.050781 23.730469 3.878906 23.671875 3.742188 23.558594 C 3.699219 22.957031 3.757812 22.367188 3.917969 21.792969 C 4.464844 21.675781 4.988281 21.558594 5.484375 21.441406 Z M 5.484375 21.441406 "/>
    <path style=" stroke:none;fill-rule:evenodd;fill:rgb(47.843137%,35.294119%,20%);fill-opacity:1;" d="M 7.050781 23.558594 C 6.664062 23.40625 6.257812 23.347656 5.832031 23.382812 C 6.371094 23.121094 6.894531 22.828125 7.398438 22.5 C 7.972656 22.34375 8.554688 22.316406 9.140625 22.410156 C 8.46875 22.839844 7.773438 23.222656 7.050781 23.558594 Z M 7.050781 23.558594 "/>
    <path style=" stroke:none;fill-rule:evenodd;fill:rgb(97.647059%,95.294118%,90.980393%);fill-opacity:1;" d="M 2.523438 20.910156 C 2.21875 21.339844 1.988281 21.8125 1.828125 22.324219 C 2.078125 23.007812 2.367188 23.652344 2.699219 24.265625 C 2.6875 24.535156 2.800781 24.710938 3.046875 24.792969 C 3.046875 24.851562 3.046875 24.910156 3.046875 24.96875 C 2.476562 24.980469 2.21875 24.6875 2.261719 24.089844 C 1.703125 23.859375 1.5 23.480469 1.652344 22.941406 C 1.226562 22.386719 1.257812 21.828125 1.742188 21.265625 C 1.933594 20.992188 2.195312 20.875 2.523438 20.910156 Z M 2.523438 20.910156 "/>
    <path style=" stroke:none;fill-rule:evenodd;fill:rgb(49.803922%,33.333334%,15.294118%);fill-opacity:1;" d="M 4.265625 20.03125 C 3.578125 21.121094 3.40625 22.300781 3.742188 23.558594 C 3.878906 23.671875 4.050781 23.730469 4.265625 23.734375 C 4.777344 23.5625 5.300781 23.445312 5.832031 23.382812 C 6.257812 23.347656 6.664062 23.40625 7.050781 23.558594 C 7.050781 23.617188 7.050781 23.675781 7.050781 23.734375 C 6.339844 24.007812 5.640625 24.332031 4.960938 24.707031 C 4.328125 24.792969 3.6875 24.824219 3.046875 24.792969 C 2.800781 24.710938 2.6875 24.535156 2.699219 24.265625 C 2.703125 23.667969 2.585938 23.109375 2.351562 22.589844 C 2.605469 21.832031 2.894531 21.097656 3.222656 20.382812 C 3.507812 20.101562 3.855469 19.984375 4.265625 20.03125 Z M 4.265625 20.03125 "/>
    <path style=" stroke:none;fill-rule:evenodd;fill:rgb(42.352942%,30.588236%,16.470589%);fill-opacity:1;" d="M 31.078125 23.207031 C 31.234375 23.3125 31.40625 23.371094 31.601562 23.382812 C 31.601562 23.5 31.660156 23.558594 31.773438 23.558594 C 31.878906 23.671875 31.992188 23.792969 32.121094 23.910156 C 31.871094 24.03125 31.636719 24.148438 31.425781 24.265625 C 31.113281 24.289062 30.824219 24.230469 30.554688 24.089844 C 30.347656 23.480469 29.941406 23.070312 29.335938 22.851562 C 29.101562 22.621094 29.132812 22.441406 29.425781 22.324219 C 30.023438 22.554688 30.574219 22.847656 31.078125 23.207031 Z M 31.078125 23.207031 "/>
    <path style=" stroke:none;fill-rule:evenodd;fill:rgb(96.470588%,92.156863%,82.745099%);fill-opacity:1;" d="M 32.644531 21.089844 C 32.042969 21.261719 31.402344 21.320312 30.730469 21.265625 C 30.578125 21.242188 30.460938 21.300781 30.382812 21.441406 C 30.585938 21.746094 30.875 21.863281 31.253906 21.792969 C 31.601562 21.792969 31.949219 21.792969 32.296875 21.792969 C 32.824219 22.0625 33.40625 22.210938 34.039062 22.234375 C 34.234375 22.4375 34.410156 22.644531 34.558594 22.851562 C 34.707031 22.914062 34.765625 23.03125 34.734375 23.207031 C 34.734375 23.558594 34.734375 23.910156 34.734375 24.265625 C 34.558594 24.265625 34.386719 24.265625 34.210938 24.265625 C 33.421875 23.996094 32.609375 23.761719 31.773438 23.558594 C 31.660156 23.558594 31.601562 23.5 31.601562 23.382812 C 32.183594 23.351562 32.765625 23.382812 33.339844 23.46875 C 34.390625 24.179688 34.679688 23.972656 34.210938 22.851562 C 33.0625 22.324219 31.84375 22.089844 30.554688 22.148438 C 30.574219 22.578125 30.75 22.933594 31.078125 23.207031 C 30.574219 22.847656 30.023438 22.554688 29.425781 22.324219 C 29.132812 22.441406 29.101562 22.621094 29.335938 22.851562 C 29.070312 22.867188 28.898438 22.75 28.816406 22.5 C 29.074219 22.1875 29.421875 22.066406 29.859375 22.148438 C 29.859375 21.910156 29.859375 21.675781 29.859375 21.441406 C 29.171875 21.40625 29.171875 21.320312 29.859375 21.175781 C 29.652344 21.0625 29.652344 20.972656 29.859375 20.910156 C 30.777344 21.078125 31.707031 21.136719 32.644531 21.089844 Z M 32.644531 21.089844 "/>
    <path style=" stroke:none;fill-rule:evenodd;fill:rgb(78.823531%,67.058825%,53.333336%);fill-opacity:1;" d="M 34.734375 23.207031 C 34.902344 23.578125 34.960938 23.988281 34.910156 24.441406 C 34.628906 24.488281 34.398438 24.429688 34.210938 24.265625 C 34.386719 24.265625 34.558594 24.265625 34.734375 24.265625 C 34.734375 23.910156 34.734375 23.558594 34.734375 23.207031 Z M 34.734375 23.207031 "/>
    <path style=" stroke:none;fill-rule:evenodd;fill:rgb(47.450981%,32.156864%,13.333334%);fill-opacity:1;" d="M 35.777344 22.148438 C 35.847656 22.671875 35.90625 23.203125 35.953125 23.734375 C 36.070312 24.410156 35.835938 24.910156 35.257812 25.234375 C 34.5625 25.324219 33.867188 25.351562 33.167969 25.324219 C 32.78125 25.164062 32.605469 24.871094 32.644531 24.441406 C 32.234375 24.410156 31.828125 24.351562 31.425781 24.265625 C 31.636719 24.148438 31.871094 24.03125 32.121094 23.910156 C 31.992188 23.792969 31.878906 23.671875 31.773438 23.558594 C 32.609375 23.761719 33.421875 23.996094 34.210938 24.265625 C 34.398438 24.429688 34.628906 24.488281 34.910156 24.441406 C 34.960938 23.988281 34.902344 23.578125 34.734375 23.207031 C 34.765625 23.03125 34.707031 22.914062 34.558594 22.851562 C 34.503906 22.5 34.445312 22.148438 34.386719 21.792969 C 34.210938 21.792969 34.039062 21.792969 33.863281 21.792969 C 33.691406 21.792969 33.515625 21.792969 33.339844 21.792969 C 33.339844 21.617188 33.339844 21.441406 33.339844 21.265625 C 33.902344 21.316406 34.425781 21.199219 34.910156 20.910156 C 35.082031 21.261719 35.257812 21.617188 35.429688 21.96875 C 35.511719 22.113281 35.625 22.171875 35.777344 22.148438 Z M 35.777344 22.148438 "/>
    <path style=" stroke:none;fill-rule:evenodd;fill:rgb(43.921569%,32.549021%,20.784314%);fill-opacity:1;" d="M 35.777344 22.148438 C 35.90625 22.222656 35.992188 22.339844 36.039062 22.5 C 36.15625 23.324219 36.15625 24.148438 36.039062 24.96875 C 35.835938 25.355469 35.515625 25.53125 35.082031 25.5 C 34.410156 25.554688 33.769531 25.496094 33.167969 25.324219 C 33.867188 25.351562 34.5625 25.324219 35.257812 25.234375 C 35.835938 24.910156 36.070312 24.410156 35.953125 23.734375 C 35.90625 23.203125 35.847656 22.671875 35.777344 22.148438 Z M 35.777344 22.148438 "/>
    <path style=" stroke:none;fill-rule:evenodd;fill:rgb(97.647059%,95.294118%,89.019608%);fill-opacity:1;" d="M 3.046875 24.96875 C 3.746094 24.941406 4.441406 24.972656 5.136719 25.058594 C 6.078125 25.71875 6.832031 26.542969 7.398438 27.53125 C 7.800781 27.617188 8.207031 27.644531 8.617188 27.617188 C 8.796875 27.917969 9.03125 28.152344 9.316406 28.324219 C 8.691406 28.246094 8.082031 28.128906 7.488281 27.96875 C 7.429688 28.03125 7.371094 28.089844 7.3125 28.148438 C 6.65625 27.242188 5.988281 26.332031 5.308594 25.410156 C 4.613281 25.351562 3.917969 25.292969 3.222656 25.234375 C 3.125 25.167969 3.066406 25.078125 3.046875 24.96875 Z M 3.046875 24.96875 "/>
    <path style=" stroke:none;fill-rule:evenodd;fill:rgb(55.29412%,41.176471%,21.960784%);fill-opacity:1;" d="M 7.050781 23.734375 C 7.007812 24.175781 7.179688 24.46875 7.574219 24.617188 C 7.925781 25.09375 8.273438 25.566406 8.617188 26.03125 C 9.394531 26.488281 10.207031 26.839844 11.054688 27.089844 C 10.597656 26.953125 10.132812 26.925781 9.664062 27 C 9.722656 27.058594 9.777344 27.117188 9.835938 27.175781 C 9.402344 27.300781 8.996094 27.445312 8.617188 27.617188 C 8.207031 27.644531 7.800781 27.617188 7.398438 27.53125 C 6.832031 26.542969 6.078125 25.71875 5.136719 25.058594 C 4.441406 24.972656 3.746094 24.941406 3.046875 24.96875 C 3.046875 24.910156 3.046875 24.851562 3.046875 24.792969 C 3.6875 24.824219 4.328125 24.792969 4.960938 24.707031 C 5.640625 24.332031 6.339844 24.007812 7.050781 23.734375 Z M 7.050781 23.734375 "/>
    <path style=" stroke:none;fill-rule:evenodd;fill:rgb(98.039216%,94.901961%,83.92157%);fill-opacity:1;" d="M 8.617188 26.03125 C 11.308594 26.417969 13.976562 26.917969 16.628906 27.53125 C 19.0625 27.617188 21.5 27.648438 23.941406 27.617188 C 21.183594 27.792969 18.398438 27.851562 15.582031 27.792969 C 14.097656 27.539062 12.589844 27.304688 11.054688 27.089844 C 10.207031 26.839844 9.394531 26.488281 8.617188 26.03125 Z M 8.617188 26.03125 "/>
    <path style=" stroke:none;fill-rule:evenodd;fill:rgb(55.29412%,41.960785%,25.882354%);fill-opacity:1;" d="M 30.554688 24.089844 C 30.824219 24.230469 31.113281 24.289062 31.425781 24.265625 C 31.828125 24.351562 32.234375 24.410156 32.644531 24.441406 C 32.605469 24.871094 32.78125 25.164062 33.167969 25.324219 C 33.769531 25.496094 34.410156 25.554688 35.082031 25.5 C 34.175781 25.683594 33.246094 25.710938 32.296875 25.589844 C 31.683594 26.0625 31.101562 26.5625 30.554688 27.089844 C 30.0625 27.648438 29.484375 28.0625 28.816406 28.324219 C 28.25 28.535156 27.699219 28.769531 27.160156 29.03125 C 26.316406 28.804688 25.476562 28.804688 24.636719 29.03125 C 24.921875 28.777344 25.269531 28.628906 25.679688 28.589844 C 26.375 28.5 27.070312 28.472656 27.769531 28.5 C 27.769531 28.265625 27.769531 28.03125 27.769531 27.792969 C 26.84375 27.6875 25.917969 27.628906 24.984375 27.617188 C 25.886719 27.382812 26.8125 27.179688 27.769531 27 C 28.441406 26.4375 29.109375 25.878906 29.773438 25.324219 C 30.078125 24.929688 30.339844 24.515625 30.554688 24.089844 Z M 30.554688 24.089844 "/>
    <path style=" stroke:none;fill-rule:evenodd;fill:rgb(53.333336%,37.64706%,16.078432%);fill-opacity:1;" d="M 30.382812 25.324219 C 30.613281 25.324219 30.847656 25.324219 31.078125 25.324219 C 31.128906 25.640625 31.070312 25.933594 30.902344 26.207031 C 29.945312 26.519531 29.21875 27.109375 28.726562 27.96875 C 28.503906 27.949219 28.359375 27.832031 28.292969 27.617188 C 28.398438 27.390625 28.484375 27.152344 28.554688 26.910156 C 29.300781 26.539062 29.910156 26.007812 30.382812 25.324219 Z M 30.382812 25.324219 "/>
    <path style=" stroke:none;fill-rule:evenodd;fill:rgb(52.156866%,36.078432%,18.039216%);fill-opacity:1;" d="M 11.054688 27.089844 C 12.589844 27.304688 14.097656 27.539062 15.582031 27.792969 C 18.453125 28 21.355469 28.027344 24.289062 27.882812 C 24.449219 27.832031 24.5625 27.746094 24.636719 27.617188 C 24.753906 27.617188 24.867188 27.617188 24.984375 27.617188 C 25.917969 27.628906 26.84375 27.6875 27.769531 27.792969 C 27.769531 28.03125 27.769531 28.265625 27.769531 28.5 C 27.070312 28.472656 26.375 28.5 25.679688 28.589844 C 25.269531 28.628906 24.921875 28.777344 24.636719 29.03125 C 24.441406 29.039062 24.269531 29.097656 24.113281 29.207031 C 23.996094 29.207031 23.882812 29.207031 23.765625 29.207031 C 23.84375 29.035156 23.960938 28.890625 24.113281 28.765625 C 23.914062 28.632812 23.914062 28.488281 24.113281 28.324219 C 23.996094 28.265625 23.882812 28.207031 23.765625 28.148438 C 23.394531 28.289062 23.019531 28.40625 22.632812 28.5 C 20.347656 28.222656 18.054688 28.132812 15.757812 28.234375 C 16.035156 28.421875 16.152344 28.683594 16.105469 29.03125 C 18.59375 29.195312 21.089844 29.253906 23.589844 29.207031 C 21.058594 29.4375 18.507812 29.4375 15.929688 29.207031 C 15.871094 29.207031 15.816406 29.207031 15.757812 29.207031 C 15.695312 29.058594 15.582031 29 15.410156 29.03125 C 13.148438 28.722656 10.886719 28.25 8.617188 27.617188 C 8.996094 27.445312 9.402344 27.300781 9.835938 27.175781 C 9.777344 27.117188 9.722656 27.058594 9.664062 27 C 10.132812 26.925781 10.597656 26.953125 11.054688 27.089844 Z M 11.054688 27.089844 "/>
    <path style=" stroke:none;fill-rule:evenodd;fill:rgb(60.000002%,49.019608%,34.509805%);fill-opacity:1;" d="M 23.941406 27.617188 C 24.171875 27.617188 24.402344 27.617188 24.636719 27.617188 C 24.5625 27.746094 24.449219 27.832031 24.289062 27.882812 C 21.355469 28.027344 18.453125 28 15.582031 27.792969 C 18.398438 27.851562 21.183594 27.792969 23.941406 27.617188 Z M 23.941406 27.617188 "/>
    <path style=" stroke:none;fill-rule:evenodd;fill:rgb(54.901963%,35.686275%,16.078432%);fill-opacity:1;" d="M 23.765625 29.207031 C 23.707031 29.207031 23.648438 29.207031 23.589844 29.207031 C 21.089844 29.253906 18.59375 29.195312 16.105469 29.03125 C 16.152344 28.683594 16.035156 28.421875 15.757812 28.234375 C 18.054688 28.132812 20.347656 28.222656 22.632812 28.5 C 23.019531 28.40625 23.394531 28.289062 23.765625 28.148438 C 23.882812 28.207031 23.996094 28.265625 24.113281 28.324219 C 23.914062 28.488281 23.914062 28.632812 24.113281 28.765625 C 23.960938 28.890625 23.84375 29.035156 23.765625 29.207031 Z M 23.765625 29.207031 "/>
    <path style=" stroke:none;fill-rule:evenodd;fill:rgb(57.647061%,45.882353%,32.156864%);fill-opacity:1;" d="M 8.617188 27.617188 C 10.886719 28.25 13.148438 28.722656 15.410156 29.03125 C 13.71875 29.179688 12.09375 28.972656 10.535156 28.410156 C 10.132812 28.324219 9.726562 28.292969 9.316406 28.324219 C 9.03125 28.152344 8.796875 27.917969 8.617188 27.617188 Z M 8.617188 27.617188 "/>
    <path style=" stroke:none;fill-rule:evenodd;fill:rgb(95.294118%,88.627452%,80.784315%);fill-opacity:1;" d="M 9.316406 28.324219 C 9.726562 28.292969 10.132812 28.324219 10.535156 28.410156 C 12.09375 28.972656 13.71875 29.179688 15.410156 29.03125 C 15.582031 29 15.695312 29.058594 15.757812 29.207031 C 14.480469 29.207031 13.203125 29.207031 11.925781 29.207031 C 11.121094 28.933594 10.25 28.640625 9.316406 28.324219 Z M 9.316406 28.324219 "/>
    <path style=" stroke:none;fill-rule:evenodd;fill:rgb(96.470588%,92.156863%,86.274511%);fill-opacity:1;" d="M 28.816406 28.324219 C 28.847656 28.941406 28.53125 29.351562 27.855469 29.558594 C 26.554688 29.347656 25.246094 29.347656 23.941406 29.558594 C 23.996094 29.441406 24.054688 29.324219 24.113281 29.207031 C 24.269531 29.097656 24.441406 29.039062 24.636719 29.03125 C 25.476562 28.804688 26.316406 28.804688 27.160156 29.03125 C 27.699219 28.769531 28.25 28.535156 28.816406 28.324219 Z M 28.816406 28.324219 "/>
    <path style=" stroke:none;fill-rule:evenodd;fill:rgb(61.56863%,49.411765%,36.078432%);fill-opacity:1;" d="M 15.929688 29.207031 C 18.507812 29.4375 21.058594 29.4375 23.589844 29.207031 C 23.648438 29.207031 23.707031 29.207031 23.765625 29.207031 C 23.882812 29.207031 23.996094 29.207031 24.113281 29.207031 C 24.054688 29.324219 23.996094 29.441406 23.941406 29.558594 C 23.371094 29.703125 22.789062 29.761719 22.199219 29.734375 C 20.199219 29.589844 18.167969 29.5 16.105469 29.46875 C 16.007812 29.402344 15.949219 29.316406 15.929688 29.207031 Z M 15.929688 29.207031 "/>
    <path style=" stroke:none;fill-rule:evenodd;fill:rgb(87.450981%,79.215688%,70.19608%);fill-opacity:1;" d="M 15.757812 29.207031 C 15.816406 29.207031 15.871094 29.207031 15.929688 29.207031 C 15.949219 29.316406 16.007812 29.402344 16.105469 29.46875 C 18.167969 29.5 20.199219 29.589844 22.199219 29.734375 C 20.160156 29.722656 18.128906 29.75 16.105469 29.824219 C 15.875 29.679688 15.757812 29.472656 15.757812 29.207031 Z M 15.757812 29.207031 "/>
    <path style=" stroke:none;fill-rule:evenodd;fill:rgb(99.607843%,97.647059%,93.725491%);fill-opacity:1;" d="M 11.925781 29.207031 C 13.203125 29.207031 14.480469 29.207031 15.757812 29.207031 C 15.757812 29.472656 15.875 29.679688 16.105469 29.824219 C 18.128906 29.75 20.160156 29.722656 22.199219 29.734375 C 22.789062 29.761719 23.371094 29.703125 23.941406 29.558594 C 23.84375 29.785156 23.667969 29.933594 23.417969 30 C 20.847656 30.171875 18.527344 30.257812 16.453125 30.265625 C 16.277344 30.234375 16.105469 30.207031 15.929688 30.175781 C 15.816406 29.941406 15.640625 29.765625 15.410156 29.648438 C 14.363281 29.589844 13.320312 29.53125 12.273438 29.46875 C 12.113281 29.421875 12 29.332031 11.925781 29.207031 Z M 11.925781 29.207031 "/>
  </g>
</svg>
